%TF.GenerationSoftware,KiCad,Pcbnew,(6.0.5)*%
%TF.CreationDate,2023-05-15T14:24:38+02:00*%
%TF.ProjectId,stm32_prototyp,73746d33-325f-4707-926f-746f7479702e,rev?*%
%TF.SameCoordinates,Original*%
%TF.FileFunction,Paste,Bot*%
%TF.FilePolarity,Positive*%
%FSLAX46Y46*%
G04 Gerber Fmt 4.6, Leading zero omitted, Abs format (unit mm)*
G04 Created by KiCad (PCBNEW (6.0.5)) date 2023-05-15 14:24:38*
%MOMM*%
%LPD*%
G01*
G04 APERTURE LIST*
G04 Aperture macros list*
%AMRoundRect*
0 Rectangle with rounded corners*
0 $1 Rounding radius*
0 $2 $3 $4 $5 $6 $7 $8 $9 X,Y pos of 4 corners*
0 Add a 4 corners polygon primitive as box body*
4,1,4,$2,$3,$4,$5,$6,$7,$8,$9,$2,$3,0*
0 Add four circle primitives for the rounded corners*
1,1,$1+$1,$2,$3*
1,1,$1+$1,$4,$5*
1,1,$1+$1,$6,$7*
1,1,$1+$1,$8,$9*
0 Add four rect primitives between the rounded corners*
20,1,$1+$1,$2,$3,$4,$5,0*
20,1,$1+$1,$4,$5,$6,$7,0*
20,1,$1+$1,$6,$7,$8,$9,0*
20,1,$1+$1,$8,$9,$2,$3,0*%
G04 Aperture macros list end*
%ADD10RoundRect,0.200000X0.275000X-0.200000X0.275000X0.200000X-0.275000X0.200000X-0.275000X-0.200000X0*%
%ADD11R,1.200000X0.900000*%
%ADD12RoundRect,0.150000X-0.150000X0.587500X-0.150000X-0.587500X0.150000X-0.587500X0.150000X0.587500X0*%
%ADD13RoundRect,0.200000X0.200000X0.275000X-0.200000X0.275000X-0.200000X-0.275000X0.200000X-0.275000X0*%
%ADD14RoundRect,0.200000X-0.275000X0.200000X-0.275000X-0.200000X0.275000X-0.200000X0.275000X0.200000X0*%
%ADD15R,2.000000X1.780000*%
G04 APERTURE END LIST*
D10*
%TO.C,R49*%
X79075000Y-90875000D03*
X79075000Y-89225000D03*
%TD*%
D11*
%TO.C,D36*%
X71475000Y-79750000D03*
X71475000Y-83050000D03*
%TD*%
D12*
%TO.C,Q42*%
X84275000Y-107900000D03*
X86175000Y-107900000D03*
X85225000Y-109775000D03*
%TD*%
D10*
%TO.C,R31*%
X224078800Y-140284200D03*
X224078800Y-138634200D03*
%TD*%
D12*
%TO.C,Q43*%
X84140000Y-129050000D03*
X86040000Y-129050000D03*
X85090000Y-130925000D03*
%TD*%
%TO.C,Q41*%
X84140000Y-133047500D03*
X86040000Y-133047500D03*
X85090000Y-134922500D03*
%TD*%
D10*
%TO.C,R34*%
X78800000Y-80425000D03*
X78800000Y-78775000D03*
%TD*%
D13*
%TO.C,R103*%
X85915000Y-127000000D03*
X84265000Y-127000000D03*
%TD*%
%TO.C,R102*%
X86042000Y-105918000D03*
X84392000Y-105918000D03*
%TD*%
D14*
%TO.C,R32*%
X224078800Y-141884400D03*
X224078800Y-143534400D03*
%TD*%
D10*
%TO.C,R97*%
X87757000Y-121666000D03*
X87757000Y-120016000D03*
%TD*%
D13*
%TO.C,R98*%
X85979000Y-96012000D03*
X84329000Y-96012000D03*
%TD*%
D11*
%TO.C,D38*%
X71550000Y-90275000D03*
X71550000Y-93575000D03*
%TD*%
D10*
%TO.C,R100*%
X87757000Y-111633000D03*
X87757000Y-109983000D03*
%TD*%
%TO.C,R46*%
X94700000Y-74850000D03*
X94700000Y-73200000D03*
%TD*%
%TO.C,R47*%
X94500000Y-85150000D03*
X94500000Y-83500000D03*
%TD*%
%TO.C,R50*%
X94500000Y-79950000D03*
X94500000Y-78300000D03*
%TD*%
%TO.C,R96*%
X87884000Y-101092000D03*
X87884000Y-99442000D03*
%TD*%
%TO.C,R35*%
X78600000Y-70575000D03*
X78600000Y-68925000D03*
%TD*%
D12*
%TO.C,Q38*%
X84394000Y-97947000D03*
X86294000Y-97947000D03*
X85344000Y-99822000D03*
%TD*%
%TO.C,Q40*%
X84267000Y-111965500D03*
X86167000Y-111965500D03*
X85217000Y-113840500D03*
%TD*%
D10*
%TO.C,R51*%
X94425000Y-90400000D03*
X94425000Y-88750000D03*
%TD*%
D12*
%TO.C,Q36*%
X84394000Y-102059500D03*
X86294000Y-102059500D03*
X85344000Y-103934500D03*
%TD*%
D10*
%TO.C,R44*%
X78425000Y-66125000D03*
X78425000Y-64475000D03*
%TD*%
%TO.C,R33*%
X78450000Y-59850000D03*
X78450000Y-58200000D03*
%TD*%
D11*
%TO.C,D27*%
X71325000Y-59900000D03*
X71325000Y-63200000D03*
%TD*%
D12*
%TO.C,Q39*%
X84267000Y-117975000D03*
X86167000Y-117975000D03*
X85217000Y-119850000D03*
%TD*%
D10*
%TO.C,R101*%
X87630000Y-132270000D03*
X87630000Y-130620000D03*
%TD*%
D12*
%TO.C,Q37*%
X84267000Y-121998500D03*
X86167000Y-121998500D03*
X85217000Y-123873500D03*
%TD*%
D11*
%TO.C,D37*%
X71350000Y-69900000D03*
X71350000Y-73200000D03*
%TD*%
D10*
%TO.C,R48*%
X78600000Y-75800000D03*
X78600000Y-74150000D03*
%TD*%
D13*
%TO.C,R99*%
X86042000Y-115951000D03*
X84392000Y-115951000D03*
%TD*%
D15*
%TO.C,U4*%
X82635000Y-90840000D03*
X82635000Y-88300000D03*
X82635000Y-85760000D03*
X82635000Y-83220000D03*
X82635000Y-80680000D03*
X82635000Y-78140000D03*
X82635000Y-75600000D03*
X82635000Y-73060000D03*
X92165000Y-73060000D03*
X92165000Y-75600000D03*
X92165000Y-78140000D03*
X92165000Y-80680000D03*
X92165000Y-83220000D03*
X92165000Y-85760000D03*
X92165000Y-88300000D03*
X92165000Y-90840000D03*
%TD*%
D10*
%TO.C,R45*%
X78800000Y-83725000D03*
X78800000Y-82075000D03*
%TD*%
%TO.C,R36*%
X79075000Y-87650000D03*
X79075000Y-86000000D03*
%TD*%
M02*
