%TF.GenerationSoftware,KiCad,Pcbnew,(6.0.5)*%
%TF.CreationDate,2023-05-15T14:24:38+02:00*%
%TF.ProjectId,stm32_prototyp,73746d33-325f-4707-926f-746f7479702e,rev?*%
%TF.SameCoordinates,Original*%
%TF.FileFunction,Soldermask,Bot*%
%TF.FilePolarity,Negative*%
%FSLAX46Y46*%
G04 Gerber Fmt 4.6, Leading zero omitted, Abs format (unit mm)*
G04 Created by KiCad (PCBNEW (6.0.5)) date 2023-05-15 14:24:38*
%MOMM*%
%LPD*%
G01*
G04 APERTURE LIST*
G04 Aperture macros list*
%AMRoundRect*
0 Rectangle with rounded corners*
0 $1 Rounding radius*
0 $2 $3 $4 $5 $6 $7 $8 $9 X,Y pos of 4 corners*
0 Add a 4 corners polygon primitive as box body*
4,1,4,$2,$3,$4,$5,$6,$7,$8,$9,$2,$3,0*
0 Add four circle primitives for the rounded corners*
1,1,$1+$1,$2,$3*
1,1,$1+$1,$4,$5*
1,1,$1+$1,$6,$7*
1,1,$1+$1,$8,$9*
0 Add four rect primitives between the rounded corners*
20,1,$1+$1,$2,$3,$4,$5,0*
20,1,$1+$1,$4,$5,$6,$7,0*
20,1,$1+$1,$6,$7,$8,$9,0*
20,1,$1+$1,$8,$9,$2,$3,0*%
G04 Aperture macros list end*
%ADD10R,1.700000X1.700000*%
%ADD11C,2.300000*%
%ADD12RoundRect,0.250000X-0.620000X-0.845000X0.620000X-0.845000X0.620000X0.845000X-0.620000X0.845000X0*%
%ADD13O,1.740000X2.190000*%
%ADD14R,3.000000X3.000000*%
%ADD15C,3.000000*%
%ADD16O,1.700000X1.700000*%
%ADD17R,1.800000X1.800000*%
%ADD18C,1.800000*%
%ADD19C,2.000000*%
%ADD20O,1.600000X2.000000*%
%ADD21RoundRect,0.250000X-0.600000X0.600000X-0.600000X-0.600000X0.600000X-0.600000X0.600000X0.600000X0*%
%ADD22C,1.700000*%
%ADD23R,1.500000X1.050000*%
%ADD24O,1.500000X1.050000*%
%ADD25R,1.300000X1.300000*%
%ADD26C,1.300000*%
%ADD27O,1.900000X2.900000*%
%ADD28O,2.900000X1.900000*%
%ADD29C,1.600000*%
%ADD30RoundRect,0.200000X0.275000X-0.200000X0.275000X0.200000X-0.275000X0.200000X-0.275000X-0.200000X0*%
%ADD31R,1.200000X0.900000*%
%ADD32RoundRect,0.150000X-0.150000X0.587500X-0.150000X-0.587500X0.150000X-0.587500X0.150000X0.587500X0*%
%ADD33RoundRect,0.200000X0.200000X0.275000X-0.200000X0.275000X-0.200000X-0.275000X0.200000X-0.275000X0*%
%ADD34RoundRect,0.200000X-0.275000X0.200000X-0.275000X-0.200000X0.275000X-0.200000X0.275000X0.200000X0*%
%ADD35R,2.000000X1.780000*%
G04 APERTURE END LIST*
D10*
%TO.C,J31*%
X187365000Y-53160000D03*
%TD*%
D11*
%TO.C,F1*%
X223139000Y-55905400D03*
X223139000Y-51305400D03*
X223139000Y-40005400D03*
X223139000Y-35405400D03*
%TD*%
D12*
%TO.C,J14*%
X205867000Y-54432200D03*
D13*
X208407000Y-54432200D03*
X210947000Y-54432200D03*
X213487000Y-54432200D03*
%TD*%
D14*
%TO.C,J16*%
X74950000Y-57475000D03*
D15*
X74950000Y-62475000D03*
X74950000Y-67475000D03*
X74950000Y-72475000D03*
X74950000Y-77475000D03*
X74950000Y-82475000D03*
X74950000Y-87475000D03*
X74950000Y-92475000D03*
%TD*%
D10*
%TO.C,J15*%
X108559600Y-105752400D03*
D16*
X111099600Y-105752400D03*
X108559600Y-108292400D03*
X111099600Y-108292400D03*
X108559600Y-110832400D03*
X111099600Y-110832400D03*
X108559600Y-113372400D03*
X111099600Y-113372400D03*
X108559600Y-115912400D03*
X111099600Y-115912400D03*
X108559600Y-118452400D03*
X111099600Y-118452400D03*
X108559600Y-120992400D03*
X111099600Y-120992400D03*
X108559600Y-123532400D03*
X111099600Y-123532400D03*
%TD*%
D10*
%TO.C,J8*%
X177225800Y-55707200D03*
D16*
X177225800Y-53167200D03*
X179765800Y-55707200D03*
X179765800Y-53167200D03*
X182305800Y-55707200D03*
X182305800Y-53167200D03*
X184845800Y-55707200D03*
X184845800Y-53167200D03*
%TD*%
D10*
%TO.C,J1*%
X122975600Y-120904000D03*
D16*
X125515600Y-120904000D03*
%TD*%
D10*
%TO.C,J4*%
X131394200Y-126263400D03*
D16*
X131394200Y-128803400D03*
%TD*%
D10*
%TO.C,J18*%
X107353720Y-41567600D03*
D16*
X104813720Y-41567600D03*
X107353720Y-44107600D03*
X104813720Y-44107600D03*
X107353720Y-46647600D03*
X104813720Y-46647600D03*
X107353720Y-49187600D03*
X104813720Y-49187600D03*
X107353720Y-51727600D03*
X104813720Y-51727600D03*
X107353720Y-54267600D03*
X104813720Y-54267600D03*
X107353720Y-56807600D03*
X104813720Y-56807600D03*
X107353720Y-59347600D03*
X104813720Y-59347600D03*
X107353720Y-61887600D03*
X104813720Y-61887600D03*
X107353720Y-64427600D03*
X104813720Y-64427600D03*
%TD*%
D14*
%TO.C,J7*%
X75037500Y-98847500D03*
D15*
X75037500Y-103847500D03*
X75037500Y-108847500D03*
X75037500Y-113847500D03*
X75037500Y-118847500D03*
X75037500Y-123847500D03*
X75037500Y-128847500D03*
X75037500Y-133847500D03*
%TD*%
D10*
%TO.C,J22*%
X137353720Y-41567600D03*
D16*
X134813720Y-41567600D03*
X137353720Y-44107600D03*
X134813720Y-44107600D03*
X137353720Y-46647600D03*
X134813720Y-46647600D03*
X137353720Y-49187600D03*
X134813720Y-49187600D03*
X137353720Y-51727600D03*
X134813720Y-51727600D03*
X137353720Y-54267600D03*
X134813720Y-54267600D03*
X137353720Y-56807600D03*
X134813720Y-56807600D03*
X137353720Y-59347600D03*
X134813720Y-59347600D03*
X137353720Y-61887600D03*
X134813720Y-61887600D03*
X137353720Y-64427600D03*
X134813720Y-64427600D03*
%TD*%
D10*
%TO.C,J9*%
X93853000Y-103809800D03*
D16*
X96393000Y-103809800D03*
X93853000Y-106349800D03*
X96393000Y-106349800D03*
X93853000Y-108889800D03*
X96393000Y-108889800D03*
X93853000Y-111429800D03*
X96393000Y-111429800D03*
%TD*%
D17*
%TO.C,D33*%
X170180000Y-124460000D03*
D18*
X172720000Y-124460000D03*
%TD*%
D14*
%TO.C,J21*%
X174404000Y-147218400D03*
D15*
X179404000Y-147218400D03*
X184404000Y-147218400D03*
X189404000Y-147218400D03*
%TD*%
D10*
%TO.C,J20*%
X137350000Y-71982880D03*
D16*
X134810000Y-71982880D03*
X137350000Y-74522880D03*
X134810000Y-74522880D03*
X137350000Y-77062880D03*
X134810000Y-77062880D03*
X137350000Y-79602880D03*
X134810000Y-79602880D03*
X137350000Y-82142880D03*
X134810000Y-82142880D03*
X137350000Y-84682880D03*
X134810000Y-84682880D03*
X137350000Y-87222880D03*
X134810000Y-87222880D03*
X137350000Y-89762880D03*
X134810000Y-89762880D03*
X137350000Y-92302880D03*
X134810000Y-92302880D03*
X137350000Y-94842880D03*
X134810000Y-94842880D03*
%TD*%
D10*
%TO.C,J12*%
X176733200Y-138861800D03*
D16*
X179273200Y-138861800D03*
%TD*%
D17*
%TO.C,D28*%
X148460000Y-111100000D03*
D18*
X151000000Y-111100000D03*
%TD*%
D19*
%TO.C,SW5*%
X218375000Y-77275000D03*
X224875000Y-77275000D03*
X224875000Y-72775000D03*
X218375000Y-72775000D03*
%TD*%
%TO.C,SW4*%
X233603800Y-130472800D03*
X227103800Y-130472800D03*
X233603800Y-134972800D03*
X227103800Y-134972800D03*
%TD*%
D17*
%TO.C,D29*%
X172593000Y-105689400D03*
D18*
X175133000Y-105689400D03*
%TD*%
D17*
%TO.C,D31*%
X215900000Y-111125000D03*
D18*
X218440000Y-111125000D03*
%TD*%
D20*
%TO.C,U2*%
X203521800Y-130112200D03*
X206061800Y-130112200D03*
X208601800Y-130112200D03*
X211141800Y-130112200D03*
%TD*%
D10*
%TO.C,J11*%
X233121200Y-102768400D03*
D16*
X233121200Y-105308400D03*
%TD*%
D10*
%TO.C,J25*%
X167353720Y-41567600D03*
D16*
X164813720Y-41567600D03*
X167353720Y-44107600D03*
X164813720Y-44107600D03*
X167353720Y-46647600D03*
X164813720Y-46647600D03*
X167353720Y-49187600D03*
X164813720Y-49187600D03*
X167353720Y-51727600D03*
X164813720Y-51727600D03*
X167353720Y-54267600D03*
X164813720Y-54267600D03*
X167353720Y-56807600D03*
X164813720Y-56807600D03*
X167353720Y-59347600D03*
X164813720Y-59347600D03*
X167353720Y-61887600D03*
X164813720Y-61887600D03*
X167353720Y-64427600D03*
X164813720Y-64427600D03*
%TD*%
D21*
%TO.C,J28*%
X227533200Y-120091200D03*
D22*
X227533200Y-122631200D03*
X224993200Y-120091200D03*
X224993200Y-122631200D03*
X222453200Y-120091200D03*
X222453200Y-122631200D03*
%TD*%
D12*
%TO.C,J19*%
X193929000Y-54412200D03*
D13*
X196469000Y-54412200D03*
X199009000Y-54412200D03*
X201549000Y-54412200D03*
%TD*%
D23*
%TO.C,U8*%
X220625000Y-90675000D03*
D24*
X220625000Y-89405000D03*
X220625000Y-88135000D03*
%TD*%
D10*
%TO.C,J23*%
X167350000Y-71982880D03*
D16*
X164810000Y-71982880D03*
X167350000Y-74522880D03*
X164810000Y-74522880D03*
X167350000Y-77062880D03*
X164810000Y-77062880D03*
X167350000Y-79602880D03*
X164810000Y-79602880D03*
X167350000Y-82142880D03*
X164810000Y-82142880D03*
X167350000Y-84682880D03*
X164810000Y-84682880D03*
X167350000Y-87222880D03*
X164810000Y-87222880D03*
X167350000Y-89762880D03*
X164810000Y-89762880D03*
X167350000Y-92302880D03*
X164810000Y-92302880D03*
X167350000Y-94842880D03*
X164810000Y-94842880D03*
%TD*%
D10*
%TO.C,J24*%
X137541000Y-113411000D03*
D16*
X137541000Y-115951000D03*
%TD*%
D25*
%TO.C,J30*%
X228501000Y-65765800D03*
D26*
X228501000Y-68265800D03*
X228501000Y-70265800D03*
X228501000Y-72765800D03*
D27*
X233281000Y-69265800D03*
D28*
X229101000Y-62695800D03*
X229101000Y-75835800D03*
%TD*%
D10*
%TO.C,J10*%
X197434200Y-72110600D03*
D16*
X199974200Y-72110600D03*
X202514200Y-72110600D03*
X205054200Y-72110600D03*
X207594200Y-72110600D03*
%TD*%
D10*
%TO.C,J3*%
X233045000Y-95961200D03*
D16*
X233045000Y-98501200D03*
%TD*%
D10*
%TO.C,J27*%
X174244000Y-129921000D03*
D16*
X174244000Y-132461000D03*
X174244000Y-135001000D03*
%TD*%
D17*
%TO.C,D32*%
X152400000Y-124460000D03*
D18*
X154940000Y-124460000D03*
%TD*%
D10*
%TO.C,SW3*%
X213080600Y-64465200D03*
D16*
X213080600Y-67005200D03*
%TD*%
D14*
%TO.C,J29*%
X74930000Y-139700000D03*
D15*
X74930000Y-144700000D03*
%TD*%
D17*
%TO.C,D30*%
X201930000Y-111125000D03*
D18*
X204470000Y-111125000D03*
%TD*%
D17*
%TO.C,D35*%
X207259000Y-124460000D03*
D18*
X209799000Y-124460000D03*
%TD*%
D29*
%TO.C,RV1*%
X216839800Y-56565800D03*
X218139800Y-51565800D03*
%TD*%
D17*
%TO.C,D34*%
X189230000Y-124460000D03*
D18*
X191770000Y-124460000D03*
%TD*%
D10*
%TO.C,J17*%
X107350000Y-71982880D03*
D16*
X104810000Y-71982880D03*
X107350000Y-74522880D03*
X104810000Y-74522880D03*
X107350000Y-77062880D03*
X104810000Y-77062880D03*
X107350000Y-79602880D03*
X104810000Y-79602880D03*
X107350000Y-82142880D03*
X104810000Y-82142880D03*
X107350000Y-84682880D03*
X104810000Y-84682880D03*
X107350000Y-87222880D03*
X104810000Y-87222880D03*
X107350000Y-89762880D03*
X104810000Y-89762880D03*
X107350000Y-92302880D03*
X104810000Y-92302880D03*
X107350000Y-94842880D03*
X104810000Y-94842880D03*
%TD*%
D19*
%TO.C,SW2*%
X227103800Y-140970000D03*
X233603800Y-140970000D03*
X233603800Y-145470000D03*
X227103800Y-145470000D03*
%TD*%
D10*
%TO.C,SW1*%
X188569600Y-69545200D03*
D16*
X188569600Y-72085200D03*
X188569600Y-74625200D03*
%TD*%
D30*
%TO.C,R49*%
X79075000Y-90875000D03*
X79075000Y-89225000D03*
%TD*%
D31*
%TO.C,D36*%
X71475000Y-79750000D03*
X71475000Y-83050000D03*
%TD*%
D32*
%TO.C,Q42*%
X84275000Y-107900000D03*
X86175000Y-107900000D03*
X85225000Y-109775000D03*
%TD*%
D30*
%TO.C,R31*%
X224078800Y-140284200D03*
X224078800Y-138634200D03*
%TD*%
D32*
%TO.C,Q43*%
X84140000Y-129050000D03*
X86040000Y-129050000D03*
X85090000Y-130925000D03*
%TD*%
%TO.C,Q41*%
X84140000Y-133047500D03*
X86040000Y-133047500D03*
X85090000Y-134922500D03*
%TD*%
D30*
%TO.C,R34*%
X78800000Y-80425000D03*
X78800000Y-78775000D03*
%TD*%
D33*
%TO.C,R103*%
X85915000Y-127000000D03*
X84265000Y-127000000D03*
%TD*%
%TO.C,R102*%
X86042000Y-105918000D03*
X84392000Y-105918000D03*
%TD*%
D34*
%TO.C,R32*%
X224078800Y-141884400D03*
X224078800Y-143534400D03*
%TD*%
D30*
%TO.C,R97*%
X87757000Y-121666000D03*
X87757000Y-120016000D03*
%TD*%
D33*
%TO.C,R98*%
X85979000Y-96012000D03*
X84329000Y-96012000D03*
%TD*%
D31*
%TO.C,D38*%
X71550000Y-90275000D03*
X71550000Y-93575000D03*
%TD*%
D30*
%TO.C,R100*%
X87757000Y-111633000D03*
X87757000Y-109983000D03*
%TD*%
%TO.C,R46*%
X94700000Y-74850000D03*
X94700000Y-73200000D03*
%TD*%
%TO.C,R47*%
X94500000Y-85150000D03*
X94500000Y-83500000D03*
%TD*%
%TO.C,R50*%
X94500000Y-79950000D03*
X94500000Y-78300000D03*
%TD*%
%TO.C,R96*%
X87884000Y-101092000D03*
X87884000Y-99442000D03*
%TD*%
%TO.C,R35*%
X78600000Y-70575000D03*
X78600000Y-68925000D03*
%TD*%
D32*
%TO.C,Q38*%
X84394000Y-97947000D03*
X86294000Y-97947000D03*
X85344000Y-99822000D03*
%TD*%
%TO.C,Q40*%
X84267000Y-111965500D03*
X86167000Y-111965500D03*
X85217000Y-113840500D03*
%TD*%
D30*
%TO.C,R51*%
X94425000Y-90400000D03*
X94425000Y-88750000D03*
%TD*%
D32*
%TO.C,Q36*%
X84394000Y-102059500D03*
X86294000Y-102059500D03*
X85344000Y-103934500D03*
%TD*%
D30*
%TO.C,R44*%
X78425000Y-66125000D03*
X78425000Y-64475000D03*
%TD*%
%TO.C,R33*%
X78450000Y-59850000D03*
X78450000Y-58200000D03*
%TD*%
D31*
%TO.C,D27*%
X71325000Y-59900000D03*
X71325000Y-63200000D03*
%TD*%
D32*
%TO.C,Q39*%
X84267000Y-117975000D03*
X86167000Y-117975000D03*
X85217000Y-119850000D03*
%TD*%
D30*
%TO.C,R101*%
X87630000Y-132270000D03*
X87630000Y-130620000D03*
%TD*%
D32*
%TO.C,Q37*%
X84267000Y-121998500D03*
X86167000Y-121998500D03*
X85217000Y-123873500D03*
%TD*%
D31*
%TO.C,D37*%
X71350000Y-69900000D03*
X71350000Y-73200000D03*
%TD*%
D30*
%TO.C,R48*%
X78600000Y-75800000D03*
X78600000Y-74150000D03*
%TD*%
D33*
%TO.C,R99*%
X86042000Y-115951000D03*
X84392000Y-115951000D03*
%TD*%
D35*
%TO.C,U4*%
X82635000Y-90840000D03*
X82635000Y-88300000D03*
X82635000Y-85760000D03*
X82635000Y-83220000D03*
X82635000Y-80680000D03*
X82635000Y-78140000D03*
X82635000Y-75600000D03*
X82635000Y-73060000D03*
X92165000Y-73060000D03*
X92165000Y-75600000D03*
X92165000Y-78140000D03*
X92165000Y-80680000D03*
X92165000Y-83220000D03*
X92165000Y-85760000D03*
X92165000Y-88300000D03*
X92165000Y-90840000D03*
%TD*%
D30*
%TO.C,R45*%
X78800000Y-83725000D03*
X78800000Y-82075000D03*
%TD*%
%TO.C,R36*%
X79075000Y-87650000D03*
X79075000Y-86000000D03*
%TD*%
M02*
