M48
; DRILL file {KiCad (6.0.5)} date Mon May 15 14:24:44 2023
; FORMAT={-:-/ absolute / inch / decimal}
; #@! TF.CreationDate,2023-05-15T14:24:44+02:00
; #@! TF.GenerationSoftware,Kicad,Pcbnew,(6.0.5)
; #@! TF.FileFunction,MixedPlating,1,2
FMAT,2
INCH
; #@! TA.AperFunction,Plated,PTH,ViaDrill
T1C0.0118
; #@! TA.AperFunction,Plated,PTH,ComponentDrill
T2C0.0236
; #@! TA.AperFunction,Plated,PTH,ComponentDrill
T3C0.0295
; #@! TA.AperFunction,Plated,PTH,ComponentDrill
T4C0.0354
; #@! TA.AperFunction,Plated,PTH,ComponentDrill
T5C0.0394
; #@! TA.AperFunction,Plated,PTH,ComponentDrill
T6C0.0433
; #@! TA.AperFunction,Plated,PTH,ComponentDrill
T7C0.0469
; #@! TA.AperFunction,Plated,PTH,ComponentDrill
T8C0.0512
; #@! TA.AperFunction,Plated,PTH,ComponentDrill
T9C0.0591
%
G90
G05
T1
X3.361Y-3.858
X3.475Y-4.208
X3.497Y-3.5098
X3.509Y-4.482
X3.5138Y-3.3031
X3.516Y-4.068
X3.5217Y-3.1024
X3.882Y-2.354
X3.931Y-4.0332
X3.9682Y-4.0175
X3.9997Y-3.9634
X4.0009Y-4.0018
X4.0154Y-3.927
X4.0311Y-3.891
X4.174Y-2.684
X4.591Y-5.839
X4.76Y-5.91
X4.887Y-4.923
X4.984Y-5.828
X5.0096Y-5.8013
X5.127Y-5.744
X5.529Y-3.975
X5.535Y-5.602
X5.571Y-3.98
X5.611Y-3.981
X5.66Y-3.9824
X5.666Y-4.2066
X5.7346Y-5.8276
X5.7946Y-5.8176
X5.964Y-6.022
X6.031Y-5.671
X6.166Y-2.585
X6.2016Y-2.582
X6.251Y-2.6368
X6.2884Y-2.6801
X6.3219Y-2.6506
X6.3533Y-2.6969
X6.3789Y-2.6693
X6.4232Y-2.6624
X6.434Y-5.834
X6.4597Y-2.6448
X6.4909Y-2.6281
X6.526Y-2.6231
X6.561Y-3.849
X6.671Y-2.825
X6.672Y-3.179
X6.675Y-3.079
X6.679Y-2.986
X6.68Y-3.581
X6.681Y-2.123
X6.681Y-3.479
X6.686Y-3.379
X6.69Y-3.28
X6.713Y-2.154
X6.726Y-3.718
X6.755Y-2.137
X6.7598Y-2.181
X6.7947Y-2.187
X6.878Y-3.802
X6.894Y-3.507
X6.9066Y-3.6914
X6.9311Y-3.8622
X6.935Y-5.007
X6.985Y-3.703
X6.989Y-3.893
X7.02Y-4.108
X7.0209Y-4.2081
X7.0273Y-2.7717
X7.041Y-1.148
X7.0509Y-4.1351
X7.056Y-2.797
X7.0794Y-4.1635
X7.091Y-2.829
X7.119Y-4.178
X7.169Y-4.182
X7.18Y-3.888
X7.181Y-3.677
X7.1929Y-2.5285
X7.1946Y-3.9974
X7.211Y-3.818
X7.232Y-3.084
X7.237Y-5.287
X7.268Y-3.079
X7.3Y-3.098
X7.337Y-3.097
X7.348Y-3.879
X7.3577Y-3.7415
X7.373Y-3.096
X7.375Y-3.815
X7.3796Y-3.8991
X7.414Y-3.888
X7.43Y-1.227
X7.4612Y-3.9463
X7.4636Y-3.9974
X7.4651Y-3.877
X7.515Y-3.819
X7.5183Y-3.8543
X7.5298Y-3.5601
X7.5406Y-3.7872
X7.546Y-3.14
X7.5502Y-2.624
X7.5545Y-3.9878
X7.5655Y-3.5735
X7.5664Y-4.2586
X7.5742Y-3.6079
X7.575Y-3.026
X7.586Y-3.14
X7.5886Y-2.7402
X7.6004Y-2.5128
X7.6044Y-3.6268
X7.6056Y-3.5914
X7.622Y-4.2477
X7.6428Y-3.6063
X7.65Y-3.987
X7.657Y-3.264
X7.68Y-3.622
X7.682Y-4.2319
X7.6913Y-2.8644
X7.696Y-3.198
X7.6988Y-3.7047
X7.7072Y-3.989
X7.7168Y-3.3177
X7.734Y-2.6296
X7.735Y-4.023
X7.738Y-3.346
X7.754Y-3.172
X7.763Y-4.046
X7.7631Y-3.3757
X7.7697Y-3.8031
X7.773Y-4.283
X7.79Y-2.632
X7.797Y-3.386
X7.8105Y-4.0825
X7.8136Y-4.0165
X7.832Y-3.401
X7.8387Y-3.4853
X7.841Y-3.846
X7.844Y-3.001
X7.852Y-4.081
X7.8618Y-3.4232
X7.878Y-3.805
X7.878Y-3.845
X7.8804Y-3.4994
X7.8883Y-3.3996
X7.8921Y-3.5328
X7.9137Y-3.806
X7.9164Y-3.5585
X7.944Y-3.5807
X7.9449Y-3.7751
X7.9806Y-3.8304
X7.9838Y-3.5978
X7.9917Y-3.6383
X8.016Y-3.155
X8.0222Y-3.851
X8.044Y-2.987
X8.0451Y-3.8084
X8.0456Y-3.4924
X8.0461Y-3.581
X8.0565Y-3.5444
X8.0683Y-3.4653
X8.0793Y-3.8229
X8.088Y-3.5266
X8.1018Y-3.4402
X8.107Y-3.845
X8.122Y-4.1109
X8.124Y-3.2724
X8.1344Y-3.8696
X8.135Y-3.72
X8.1558Y-3.4479
X8.1581Y-3.2291
X8.203Y-3.195
X8.2516Y-4.0516
X8.287Y-4.125
X8.324Y-3.709
X8.335Y-3.629
X8.337Y-1.728
X8.342Y-3.592
X8.3434Y-3.6794
X8.362Y-3.457
X8.374Y-1.758
X8.376Y-3.122
X8.4032Y-3.9892
X8.408Y-4.1657
X8.414Y-1.721
X8.414Y-1.7704
X8.4598Y-3.505
X8.4799Y-2.7009
X8.4821Y-2.7363
X8.4913Y-3.3022
X8.4921Y-3.2638
X8.5424Y-3.2904
X8.5582Y-3.3221
X8.5987Y-3.9853
X8.622Y-4.15
X8.625Y-3.3888
X8.7918Y-4.1562
X8.993Y-1.948
X9.029Y-4.139
X9.08Y-5.015
X9.086Y-5.057
X9.0876Y-1.7746
X9.12Y-4.482
X9.128Y-1.4537
T2
X8.537Y-2.227
X8.5882Y-2.0301
T3
X8.686Y-3.4699
X8.686Y-3.5199
X8.686Y-3.5699
T4
X5.8449Y-4.374
X5.9449Y-4.374
X6.0Y-4.9
X6.1Y-4.9
X6.7Y-4.9
X6.795Y-4.161
X6.8Y-4.9
X6.895Y-4.161
X7.45Y-4.9
X7.55Y-4.9
X7.95Y-4.375
X8.05Y-4.375
X8.1598Y-4.9
X8.2598Y-4.9
X8.5Y-4.375
X8.6Y-4.375
X8.9961Y-2.5892
X8.9961Y-2.6876
X8.9961Y-2.7664
X8.9961Y-2.8648
T5
X3.695Y-4.087
X3.695Y-4.187
X3.695Y-4.287
X3.695Y-4.387
X3.795Y-4.087
X3.795Y-4.187
X3.795Y-4.287
X3.795Y-4.387
X4.1264Y-2.834
X4.1264Y-2.934
X4.1264Y-3.034
X4.1264Y-3.134
X4.1264Y-3.234
X4.1264Y-3.334
X4.1264Y-3.434
X4.1264Y-3.534
X4.1264Y-3.634
X4.1264Y-3.734
X4.1265Y-1.6365
X4.1265Y-1.7365
X4.1265Y-1.8365
X4.1265Y-1.9365
X4.1265Y-2.0365
X4.1265Y-2.1365
X4.1265Y-2.2365
X4.1265Y-2.3365
X4.1265Y-2.4365
X4.1265Y-2.5365
X4.2264Y-2.834
X4.2264Y-2.934
X4.2264Y-3.034
X4.2264Y-3.134
X4.2264Y-3.234
X4.2264Y-3.334
X4.2264Y-3.434
X4.2264Y-3.534
X4.2264Y-3.634
X4.2264Y-3.734
X4.2265Y-1.6365
X4.2265Y-1.7365
X4.2265Y-1.8365
X4.2265Y-1.9365
X4.2265Y-2.0365
X4.2265Y-2.1365
X4.2265Y-2.2365
X4.2265Y-2.3365
X4.2265Y-2.4365
X4.2265Y-2.5365
X4.274Y-4.1635
X4.274Y-4.2635
X4.274Y-4.3635
X4.274Y-4.4635
X4.274Y-4.5635
X4.274Y-4.6635
X4.274Y-4.7635
X4.274Y-4.8635
X4.374Y-4.1635
X4.374Y-4.2635
X4.374Y-4.3635
X4.374Y-4.4635
X4.374Y-4.5635
X4.374Y-4.6635
X4.374Y-4.7635
X4.374Y-4.8635
X4.8416Y-4.76
X4.9416Y-4.76
X5.173Y-4.971
X5.173Y-5.071
X5.3075Y-2.834
X5.3075Y-2.934
X5.3075Y-3.034
X5.3075Y-3.134
X5.3075Y-3.234
X5.3075Y-3.334
X5.3075Y-3.434
X5.3075Y-3.534
X5.3075Y-3.634
X5.3075Y-3.734
X5.3076Y-1.6365
X5.3076Y-1.7365
X5.3076Y-1.8365
X5.3076Y-1.9365
X5.3076Y-2.0365
X5.3076Y-2.1365
X5.3076Y-2.2365
X5.3076Y-2.3365
X5.3076Y-2.4365
X5.3076Y-2.5365
X5.4075Y-2.834
X5.4075Y-2.934
X5.4075Y-3.034
X5.4075Y-3.134
X5.4075Y-3.234
X5.4075Y-3.334
X5.4075Y-3.434
X5.4075Y-3.534
X5.4075Y-3.634
X5.4075Y-3.734
X5.4076Y-1.6365
X5.4076Y-1.7365
X5.4076Y-1.8365
X5.4076Y-1.9365
X5.4076Y-2.0365
X5.4076Y-2.1365
X5.4076Y-2.2365
X5.4076Y-2.3365
X5.4076Y-2.4365
X5.4076Y-2.5365
X5.415Y-4.465
X5.415Y-4.565
X6.4886Y-2.834
X6.4886Y-2.934
X6.4886Y-3.034
X6.4886Y-3.134
X6.4886Y-3.234
X6.4886Y-3.334
X6.4886Y-3.434
X6.4886Y-3.534
X6.4886Y-3.634
X6.4886Y-3.734
X6.4887Y-1.6365
X6.4887Y-1.7365
X6.4887Y-1.8365
X6.4887Y-1.9365
X6.4887Y-2.0365
X6.4887Y-2.1365
X6.4887Y-2.2365
X6.4887Y-2.3365
X6.4887Y-2.4365
X6.4887Y-2.5365
X6.5886Y-2.834
X6.5886Y-2.934
X6.5886Y-3.034
X6.5886Y-3.134
X6.5886Y-3.234
X6.5886Y-3.334
X6.5886Y-3.434
X6.5886Y-3.534
X6.5886Y-3.634
X6.5886Y-3.734
X6.5887Y-1.6365
X6.5887Y-1.7365
X6.5887Y-1.8365
X6.5887Y-1.9365
X6.5887Y-2.0365
X6.5887Y-2.1365
X6.5887Y-2.2365
X6.5887Y-2.3365
X6.5887Y-2.4365
X6.5887Y-2.5365
X6.86Y-5.115
X6.86Y-5.215
X6.86Y-5.315
X6.958Y-5.467
X6.9774Y-2.0932
X6.9774Y-2.1932
X7.058Y-5.467
X7.0774Y-2.0932
X7.0774Y-2.1932
X7.1774Y-2.0932
X7.1774Y-2.1932
X7.2774Y-2.0932
X7.2774Y-2.1932
X7.3766Y-2.0929
X7.424Y-2.738
X7.424Y-2.838
X7.424Y-2.938
X7.773Y-2.839
X7.873Y-2.839
X7.973Y-2.839
X8.0127Y-5.1225
X8.073Y-2.839
X8.1127Y-5.1225
X8.173Y-2.839
X8.2127Y-5.1225
X8.3127Y-5.1225
X8.389Y-2.538
X8.389Y-2.638
X8.758Y-4.728
X8.758Y-4.828
X8.858Y-4.728
X8.858Y-4.828
X8.958Y-4.728
X8.958Y-4.828
X9.175Y-3.778
X9.175Y-3.878
X9.178Y-4.046
X9.178Y-4.146
T6
X8.5974Y-2.8652
X8.5974Y-3.0423
X8.8533Y-2.8652
X8.8533Y-3.0423
X8.9411Y-5.1367
X8.9411Y-5.3139
X8.9411Y-5.55
X8.9411Y-5.7272
X9.197Y-5.1367
X9.197Y-5.3139
X9.197Y-5.55
X9.197Y-5.7272
T7
X7.635Y-2.1422
X7.735Y-2.1422
X7.835Y-2.1422
X7.935Y-2.1422
X8.105Y-2.143
X8.205Y-2.143
X8.305Y-2.143
X8.405Y-2.143
T8
X8.785Y-1.3939
X8.785Y-1.575
X8.785Y-2.0199
X8.785Y-2.201
T9
X2.95Y-5.5
X2.95Y-5.6969
X2.9508Y-2.2628
X2.9508Y-2.4596
X2.9508Y-2.6565
X2.9508Y-2.8533
X2.9508Y-3.0502
X2.9508Y-3.247
X2.9508Y-3.4439
X2.9508Y-3.6407
X2.9542Y-3.8916
X2.9542Y-4.0885
X2.9542Y-4.2853
X2.9542Y-4.4822
X2.9542Y-4.679
X2.9542Y-4.8759
X2.9542Y-5.0727
X2.9542Y-5.2696
X6.8663Y-5.796
X7.0631Y-5.796
X7.26Y-5.796
X7.4569Y-5.796
T8
G00X9.0Y-2.4683
M15
G01X9.0394Y-2.4683
M16
G05
G00X9.0394Y-2.9857
M15
G01X9.0Y-2.9857
M16
G05
G00X9.1843Y-2.7073
M15
G01X9.1843Y-2.7467
M16
G05
T0
M30
