%TF.GenerationSoftware,KiCad,Pcbnew,(6.0.5)*%
%TF.CreationDate,2023-05-15T14:24:38+02:00*%
%TF.ProjectId,stm32_prototyp,73746d33-325f-4707-926f-746f7479702e,rev?*%
%TF.SameCoordinates,Original*%
%TF.FileFunction,Legend,Bot*%
%TF.FilePolarity,Positive*%
%FSLAX46Y46*%
G04 Gerber Fmt 4.6, Leading zero omitted, Abs format (unit mm)*
G04 Created by KiCad (PCBNEW (6.0.5)) date 2023-05-15 14:24:38*
%MOMM*%
%LPD*%
G01*
G04 APERTURE LIST*
%ADD10C,0.150000*%
%ADD11C,0.120000*%
G04 APERTURE END LIST*
D10*
%TO.C,R49*%
X80957380Y-89407142D02*
X80481190Y-89073809D01*
X80957380Y-88835714D02*
X79957380Y-88835714D01*
X79957380Y-89216666D01*
X80005000Y-89311904D01*
X80052619Y-89359523D01*
X80147857Y-89407142D01*
X80290714Y-89407142D01*
X80385952Y-89359523D01*
X80433571Y-89311904D01*
X80481190Y-89216666D01*
X80481190Y-88835714D01*
X80290714Y-90264285D02*
X80957380Y-90264285D01*
X79909761Y-90026190D02*
X80624047Y-89788095D01*
X80624047Y-90407142D01*
X80957380Y-90835714D02*
X80957380Y-91026190D01*
X80909761Y-91121428D01*
X80862142Y-91169047D01*
X80719285Y-91264285D01*
X80528809Y-91311904D01*
X80147857Y-91311904D01*
X80052619Y-91264285D01*
X80005000Y-91216666D01*
X79957380Y-91121428D01*
X79957380Y-90930952D01*
X80005000Y-90835714D01*
X80052619Y-90788095D01*
X80147857Y-90740476D01*
X80385952Y-90740476D01*
X80481190Y-90788095D01*
X80528809Y-90835714D01*
X80576428Y-90930952D01*
X80576428Y-91121428D01*
X80528809Y-91216666D01*
X80481190Y-91264285D01*
X80385952Y-91311904D01*
%TO.C,D36*%
X69927380Y-80185714D02*
X68927380Y-80185714D01*
X68927380Y-80423809D01*
X68975000Y-80566666D01*
X69070238Y-80661904D01*
X69165476Y-80709523D01*
X69355952Y-80757142D01*
X69498809Y-80757142D01*
X69689285Y-80709523D01*
X69784523Y-80661904D01*
X69879761Y-80566666D01*
X69927380Y-80423809D01*
X69927380Y-80185714D01*
X68927380Y-81090476D02*
X68927380Y-81709523D01*
X69308333Y-81376190D01*
X69308333Y-81519047D01*
X69355952Y-81614285D01*
X69403571Y-81661904D01*
X69498809Y-81709523D01*
X69736904Y-81709523D01*
X69832142Y-81661904D01*
X69879761Y-81614285D01*
X69927380Y-81519047D01*
X69927380Y-81233333D01*
X69879761Y-81138095D01*
X69832142Y-81090476D01*
X68927380Y-82566666D02*
X68927380Y-82376190D01*
X68975000Y-82280952D01*
X69022619Y-82233333D01*
X69165476Y-82138095D01*
X69355952Y-82090476D01*
X69736904Y-82090476D01*
X69832142Y-82138095D01*
X69879761Y-82185714D01*
X69927380Y-82280952D01*
X69927380Y-82471428D01*
X69879761Y-82566666D01*
X69832142Y-82614285D01*
X69736904Y-82661904D01*
X69498809Y-82661904D01*
X69403571Y-82614285D01*
X69355952Y-82566666D01*
X69308333Y-82471428D01*
X69308333Y-82280952D01*
X69355952Y-82185714D01*
X69403571Y-82138095D01*
X69498809Y-82090476D01*
%TO.C,Q42*%
X83372619Y-108266071D02*
X83325000Y-108170833D01*
X83229761Y-108075595D01*
X83086904Y-107932738D01*
X83039285Y-107837500D01*
X83039285Y-107742261D01*
X83277380Y-107789880D02*
X83229761Y-107694642D01*
X83134523Y-107599404D01*
X82944047Y-107551785D01*
X82610714Y-107551785D01*
X82420238Y-107599404D01*
X82325000Y-107694642D01*
X82277380Y-107789880D01*
X82277380Y-107980357D01*
X82325000Y-108075595D01*
X82420238Y-108170833D01*
X82610714Y-108218452D01*
X82944047Y-108218452D01*
X83134523Y-108170833D01*
X83229761Y-108075595D01*
X83277380Y-107980357D01*
X83277380Y-107789880D01*
X82610714Y-109075595D02*
X83277380Y-109075595D01*
X82229761Y-108837500D02*
X82944047Y-108599404D01*
X82944047Y-109218452D01*
X82372619Y-109551785D02*
X82325000Y-109599404D01*
X82277380Y-109694642D01*
X82277380Y-109932738D01*
X82325000Y-110027976D01*
X82372619Y-110075595D01*
X82467857Y-110123214D01*
X82563095Y-110123214D01*
X82705952Y-110075595D01*
X83277380Y-109504166D01*
X83277380Y-110123214D01*
%TO.C,R31*%
X223052380Y-138757142D02*
X222576190Y-138423809D01*
X223052380Y-138185714D02*
X222052380Y-138185714D01*
X222052380Y-138566666D01*
X222100000Y-138661904D01*
X222147619Y-138709523D01*
X222242857Y-138757142D01*
X222385714Y-138757142D01*
X222480952Y-138709523D01*
X222528571Y-138661904D01*
X222576190Y-138566666D01*
X222576190Y-138185714D01*
X222052380Y-139090476D02*
X222052380Y-139709523D01*
X222433333Y-139376190D01*
X222433333Y-139519047D01*
X222480952Y-139614285D01*
X222528571Y-139661904D01*
X222623809Y-139709523D01*
X222861904Y-139709523D01*
X222957142Y-139661904D01*
X223004761Y-139614285D01*
X223052380Y-139519047D01*
X223052380Y-139233333D01*
X223004761Y-139138095D01*
X222957142Y-139090476D01*
X223052380Y-140661904D02*
X223052380Y-140090476D01*
X223052380Y-140376190D02*
X222052380Y-140376190D01*
X222195238Y-140280952D01*
X222290476Y-140185714D01*
X222338095Y-140090476D01*
%TO.C,Q43*%
X83237619Y-129416071D02*
X83190000Y-129320833D01*
X83094761Y-129225595D01*
X82951904Y-129082738D01*
X82904285Y-128987500D01*
X82904285Y-128892261D01*
X83142380Y-128939880D02*
X83094761Y-128844642D01*
X82999523Y-128749404D01*
X82809047Y-128701785D01*
X82475714Y-128701785D01*
X82285238Y-128749404D01*
X82190000Y-128844642D01*
X82142380Y-128939880D01*
X82142380Y-129130357D01*
X82190000Y-129225595D01*
X82285238Y-129320833D01*
X82475714Y-129368452D01*
X82809047Y-129368452D01*
X82999523Y-129320833D01*
X83094761Y-129225595D01*
X83142380Y-129130357D01*
X83142380Y-128939880D01*
X82475714Y-130225595D02*
X83142380Y-130225595D01*
X82094761Y-129987500D02*
X82809047Y-129749404D01*
X82809047Y-130368452D01*
X82142380Y-130654166D02*
X82142380Y-131273214D01*
X82523333Y-130939880D01*
X82523333Y-131082738D01*
X82570952Y-131177976D01*
X82618571Y-131225595D01*
X82713809Y-131273214D01*
X82951904Y-131273214D01*
X83047142Y-131225595D01*
X83094761Y-131177976D01*
X83142380Y-131082738D01*
X83142380Y-130797023D01*
X83094761Y-130701785D01*
X83047142Y-130654166D01*
%TO.C,Q41*%
X83237619Y-133413571D02*
X83190000Y-133318333D01*
X83094761Y-133223095D01*
X82951904Y-133080238D01*
X82904285Y-132985000D01*
X82904285Y-132889761D01*
X83142380Y-132937380D02*
X83094761Y-132842142D01*
X82999523Y-132746904D01*
X82809047Y-132699285D01*
X82475714Y-132699285D01*
X82285238Y-132746904D01*
X82190000Y-132842142D01*
X82142380Y-132937380D01*
X82142380Y-133127857D01*
X82190000Y-133223095D01*
X82285238Y-133318333D01*
X82475714Y-133365952D01*
X82809047Y-133365952D01*
X82999523Y-133318333D01*
X83094761Y-133223095D01*
X83142380Y-133127857D01*
X83142380Y-132937380D01*
X82475714Y-134223095D02*
X83142380Y-134223095D01*
X82094761Y-133985000D02*
X82809047Y-133746904D01*
X82809047Y-134365952D01*
X83142380Y-135270714D02*
X83142380Y-134699285D01*
X83142380Y-134985000D02*
X82142380Y-134985000D01*
X82285238Y-134889761D01*
X82380476Y-134794523D01*
X82428095Y-134699285D01*
%TO.C,R34*%
X80682380Y-78957142D02*
X80206190Y-78623809D01*
X80682380Y-78385714D02*
X79682380Y-78385714D01*
X79682380Y-78766666D01*
X79730000Y-78861904D01*
X79777619Y-78909523D01*
X79872857Y-78957142D01*
X80015714Y-78957142D01*
X80110952Y-78909523D01*
X80158571Y-78861904D01*
X80206190Y-78766666D01*
X80206190Y-78385714D01*
X79682380Y-79290476D02*
X79682380Y-79909523D01*
X80063333Y-79576190D01*
X80063333Y-79719047D01*
X80110952Y-79814285D01*
X80158571Y-79861904D01*
X80253809Y-79909523D01*
X80491904Y-79909523D01*
X80587142Y-79861904D01*
X80634761Y-79814285D01*
X80682380Y-79719047D01*
X80682380Y-79433333D01*
X80634761Y-79338095D01*
X80587142Y-79290476D01*
X80015714Y-80766666D02*
X80682380Y-80766666D01*
X79634761Y-80528571D02*
X80349047Y-80290476D01*
X80349047Y-80909523D01*
%TO.C,R103*%
X86209047Y-126022380D02*
X86542380Y-125546190D01*
X86780476Y-126022380D02*
X86780476Y-125022380D01*
X86399523Y-125022380D01*
X86304285Y-125070000D01*
X86256666Y-125117619D01*
X86209047Y-125212857D01*
X86209047Y-125355714D01*
X86256666Y-125450952D01*
X86304285Y-125498571D01*
X86399523Y-125546190D01*
X86780476Y-125546190D01*
X85256666Y-126022380D02*
X85828095Y-126022380D01*
X85542380Y-126022380D02*
X85542380Y-125022380D01*
X85637619Y-125165238D01*
X85732857Y-125260476D01*
X85828095Y-125308095D01*
X84637619Y-125022380D02*
X84542380Y-125022380D01*
X84447142Y-125070000D01*
X84399523Y-125117619D01*
X84351904Y-125212857D01*
X84304285Y-125403333D01*
X84304285Y-125641428D01*
X84351904Y-125831904D01*
X84399523Y-125927142D01*
X84447142Y-125974761D01*
X84542380Y-126022380D01*
X84637619Y-126022380D01*
X84732857Y-125974761D01*
X84780476Y-125927142D01*
X84828095Y-125831904D01*
X84875714Y-125641428D01*
X84875714Y-125403333D01*
X84828095Y-125212857D01*
X84780476Y-125117619D01*
X84732857Y-125070000D01*
X84637619Y-125022380D01*
X83970952Y-125022380D02*
X83351904Y-125022380D01*
X83685238Y-125403333D01*
X83542380Y-125403333D01*
X83447142Y-125450952D01*
X83399523Y-125498571D01*
X83351904Y-125593809D01*
X83351904Y-125831904D01*
X83399523Y-125927142D01*
X83447142Y-125974761D01*
X83542380Y-126022380D01*
X83828095Y-126022380D01*
X83923333Y-125974761D01*
X83970952Y-125927142D01*
%TO.C,R102*%
X90781047Y-106370380D02*
X91114380Y-105894190D01*
X91352476Y-106370380D02*
X91352476Y-105370380D01*
X90971523Y-105370380D01*
X90876285Y-105418000D01*
X90828666Y-105465619D01*
X90781047Y-105560857D01*
X90781047Y-105703714D01*
X90828666Y-105798952D01*
X90876285Y-105846571D01*
X90971523Y-105894190D01*
X91352476Y-105894190D01*
X89828666Y-106370380D02*
X90400095Y-106370380D01*
X90114380Y-106370380D02*
X90114380Y-105370380D01*
X90209619Y-105513238D01*
X90304857Y-105608476D01*
X90400095Y-105656095D01*
X89209619Y-105370380D02*
X89114380Y-105370380D01*
X89019142Y-105418000D01*
X88971523Y-105465619D01*
X88923904Y-105560857D01*
X88876285Y-105751333D01*
X88876285Y-105989428D01*
X88923904Y-106179904D01*
X88971523Y-106275142D01*
X89019142Y-106322761D01*
X89114380Y-106370380D01*
X89209619Y-106370380D01*
X89304857Y-106322761D01*
X89352476Y-106275142D01*
X89400095Y-106179904D01*
X89447714Y-105989428D01*
X89447714Y-105751333D01*
X89400095Y-105560857D01*
X89352476Y-105465619D01*
X89304857Y-105418000D01*
X89209619Y-105370380D01*
X88495333Y-105465619D02*
X88447714Y-105418000D01*
X88352476Y-105370380D01*
X88114380Y-105370380D01*
X88019142Y-105418000D01*
X87971523Y-105465619D01*
X87923904Y-105560857D01*
X87923904Y-105656095D01*
X87971523Y-105798952D01*
X88542952Y-106370380D01*
X87923904Y-106370380D01*
%TO.C,R32*%
X223052380Y-142082142D02*
X222576190Y-141748809D01*
X223052380Y-141510714D02*
X222052380Y-141510714D01*
X222052380Y-141891666D01*
X222100000Y-141986904D01*
X222147619Y-142034523D01*
X222242857Y-142082142D01*
X222385714Y-142082142D01*
X222480952Y-142034523D01*
X222528571Y-141986904D01*
X222576190Y-141891666D01*
X222576190Y-141510714D01*
X222052380Y-142415476D02*
X222052380Y-143034523D01*
X222433333Y-142701190D01*
X222433333Y-142844047D01*
X222480952Y-142939285D01*
X222528571Y-142986904D01*
X222623809Y-143034523D01*
X222861904Y-143034523D01*
X222957142Y-142986904D01*
X223004761Y-142939285D01*
X223052380Y-142844047D01*
X223052380Y-142558333D01*
X223004761Y-142463095D01*
X222957142Y-142415476D01*
X222147619Y-143415476D02*
X222100000Y-143463095D01*
X222052380Y-143558333D01*
X222052380Y-143796428D01*
X222100000Y-143891666D01*
X222147619Y-143939285D01*
X222242857Y-143986904D01*
X222338095Y-143986904D01*
X222480952Y-143939285D01*
X223052380Y-143367857D01*
X223052380Y-143986904D01*
%TO.C,R97*%
X89639380Y-120198142D02*
X89163190Y-119864809D01*
X89639380Y-119626714D02*
X88639380Y-119626714D01*
X88639380Y-120007666D01*
X88687000Y-120102904D01*
X88734619Y-120150523D01*
X88829857Y-120198142D01*
X88972714Y-120198142D01*
X89067952Y-120150523D01*
X89115571Y-120102904D01*
X89163190Y-120007666D01*
X89163190Y-119626714D01*
X89639380Y-120674333D02*
X89639380Y-120864809D01*
X89591761Y-120960047D01*
X89544142Y-121007666D01*
X89401285Y-121102904D01*
X89210809Y-121150523D01*
X88829857Y-121150523D01*
X88734619Y-121102904D01*
X88687000Y-121055285D01*
X88639380Y-120960047D01*
X88639380Y-120769571D01*
X88687000Y-120674333D01*
X88734619Y-120626714D01*
X88829857Y-120579095D01*
X89067952Y-120579095D01*
X89163190Y-120626714D01*
X89210809Y-120674333D01*
X89258428Y-120769571D01*
X89258428Y-120960047D01*
X89210809Y-121055285D01*
X89163190Y-121102904D01*
X89067952Y-121150523D01*
X88639380Y-121483857D02*
X88639380Y-122150523D01*
X89639380Y-121721952D01*
%TO.C,R98*%
X89161857Y-96464380D02*
X89495190Y-95988190D01*
X89733285Y-96464380D02*
X89733285Y-95464380D01*
X89352333Y-95464380D01*
X89257095Y-95512000D01*
X89209476Y-95559619D01*
X89161857Y-95654857D01*
X89161857Y-95797714D01*
X89209476Y-95892952D01*
X89257095Y-95940571D01*
X89352333Y-95988190D01*
X89733285Y-95988190D01*
X88685666Y-96464380D02*
X88495190Y-96464380D01*
X88399952Y-96416761D01*
X88352333Y-96369142D01*
X88257095Y-96226285D01*
X88209476Y-96035809D01*
X88209476Y-95654857D01*
X88257095Y-95559619D01*
X88304714Y-95512000D01*
X88399952Y-95464380D01*
X88590428Y-95464380D01*
X88685666Y-95512000D01*
X88733285Y-95559619D01*
X88780904Y-95654857D01*
X88780904Y-95892952D01*
X88733285Y-95988190D01*
X88685666Y-96035809D01*
X88590428Y-96083428D01*
X88399952Y-96083428D01*
X88304714Y-96035809D01*
X88257095Y-95988190D01*
X88209476Y-95892952D01*
X87638047Y-95892952D02*
X87733285Y-95845333D01*
X87780904Y-95797714D01*
X87828523Y-95702476D01*
X87828523Y-95654857D01*
X87780904Y-95559619D01*
X87733285Y-95512000D01*
X87638047Y-95464380D01*
X87447571Y-95464380D01*
X87352333Y-95512000D01*
X87304714Y-95559619D01*
X87257095Y-95654857D01*
X87257095Y-95702476D01*
X87304714Y-95797714D01*
X87352333Y-95845333D01*
X87447571Y-95892952D01*
X87638047Y-95892952D01*
X87733285Y-95940571D01*
X87780904Y-95988190D01*
X87828523Y-96083428D01*
X87828523Y-96273904D01*
X87780904Y-96369142D01*
X87733285Y-96416761D01*
X87638047Y-96464380D01*
X87447571Y-96464380D01*
X87352333Y-96416761D01*
X87304714Y-96369142D01*
X87257095Y-96273904D01*
X87257095Y-96083428D01*
X87304714Y-95988190D01*
X87352333Y-95940571D01*
X87447571Y-95892952D01*
%TO.C,D38*%
X70002380Y-90710714D02*
X69002380Y-90710714D01*
X69002380Y-90948809D01*
X69050000Y-91091666D01*
X69145238Y-91186904D01*
X69240476Y-91234523D01*
X69430952Y-91282142D01*
X69573809Y-91282142D01*
X69764285Y-91234523D01*
X69859523Y-91186904D01*
X69954761Y-91091666D01*
X70002380Y-90948809D01*
X70002380Y-90710714D01*
X69002380Y-91615476D02*
X69002380Y-92234523D01*
X69383333Y-91901190D01*
X69383333Y-92044047D01*
X69430952Y-92139285D01*
X69478571Y-92186904D01*
X69573809Y-92234523D01*
X69811904Y-92234523D01*
X69907142Y-92186904D01*
X69954761Y-92139285D01*
X70002380Y-92044047D01*
X70002380Y-91758333D01*
X69954761Y-91663095D01*
X69907142Y-91615476D01*
X69430952Y-92805952D02*
X69383333Y-92710714D01*
X69335714Y-92663095D01*
X69240476Y-92615476D01*
X69192857Y-92615476D01*
X69097619Y-92663095D01*
X69050000Y-92710714D01*
X69002380Y-92805952D01*
X69002380Y-92996428D01*
X69050000Y-93091666D01*
X69097619Y-93139285D01*
X69192857Y-93186904D01*
X69240476Y-93186904D01*
X69335714Y-93139285D01*
X69383333Y-93091666D01*
X69430952Y-92996428D01*
X69430952Y-92805952D01*
X69478571Y-92710714D01*
X69526190Y-92663095D01*
X69621428Y-92615476D01*
X69811904Y-92615476D01*
X69907142Y-92663095D01*
X69954761Y-92710714D01*
X70002380Y-92805952D01*
X70002380Y-92996428D01*
X69954761Y-93091666D01*
X69907142Y-93139285D01*
X69811904Y-93186904D01*
X69621428Y-93186904D01*
X69526190Y-93139285D01*
X69478571Y-93091666D01*
X69430952Y-92996428D01*
%TO.C,R100*%
X89639380Y-109688952D02*
X89163190Y-109355619D01*
X89639380Y-109117523D02*
X88639380Y-109117523D01*
X88639380Y-109498476D01*
X88687000Y-109593714D01*
X88734619Y-109641333D01*
X88829857Y-109688952D01*
X88972714Y-109688952D01*
X89067952Y-109641333D01*
X89115571Y-109593714D01*
X89163190Y-109498476D01*
X89163190Y-109117523D01*
X89639380Y-110641333D02*
X89639380Y-110069904D01*
X89639380Y-110355619D02*
X88639380Y-110355619D01*
X88782238Y-110260380D01*
X88877476Y-110165142D01*
X88925095Y-110069904D01*
X88639380Y-111260380D02*
X88639380Y-111355619D01*
X88687000Y-111450857D01*
X88734619Y-111498476D01*
X88829857Y-111546095D01*
X89020333Y-111593714D01*
X89258428Y-111593714D01*
X89448904Y-111546095D01*
X89544142Y-111498476D01*
X89591761Y-111450857D01*
X89639380Y-111355619D01*
X89639380Y-111260380D01*
X89591761Y-111165142D01*
X89544142Y-111117523D01*
X89448904Y-111069904D01*
X89258428Y-111022285D01*
X89020333Y-111022285D01*
X88829857Y-111069904D01*
X88734619Y-111117523D01*
X88687000Y-111165142D01*
X88639380Y-111260380D01*
X88639380Y-112212761D02*
X88639380Y-112308000D01*
X88687000Y-112403238D01*
X88734619Y-112450857D01*
X88829857Y-112498476D01*
X89020333Y-112546095D01*
X89258428Y-112546095D01*
X89448904Y-112498476D01*
X89544142Y-112450857D01*
X89591761Y-112403238D01*
X89639380Y-112308000D01*
X89639380Y-112212761D01*
X89591761Y-112117523D01*
X89544142Y-112069904D01*
X89448904Y-112022285D01*
X89258428Y-111974666D01*
X89020333Y-111974666D01*
X88829857Y-112022285D01*
X88734619Y-112069904D01*
X88687000Y-112117523D01*
X88639380Y-112212761D01*
%TO.C,R46*%
X96582380Y-73382142D02*
X96106190Y-73048809D01*
X96582380Y-72810714D02*
X95582380Y-72810714D01*
X95582380Y-73191666D01*
X95630000Y-73286904D01*
X95677619Y-73334523D01*
X95772857Y-73382142D01*
X95915714Y-73382142D01*
X96010952Y-73334523D01*
X96058571Y-73286904D01*
X96106190Y-73191666D01*
X96106190Y-72810714D01*
X95915714Y-74239285D02*
X96582380Y-74239285D01*
X95534761Y-74001190D02*
X96249047Y-73763095D01*
X96249047Y-74382142D01*
X95582380Y-75191666D02*
X95582380Y-75001190D01*
X95630000Y-74905952D01*
X95677619Y-74858333D01*
X95820476Y-74763095D01*
X96010952Y-74715476D01*
X96391904Y-74715476D01*
X96487142Y-74763095D01*
X96534761Y-74810714D01*
X96582380Y-74905952D01*
X96582380Y-75096428D01*
X96534761Y-75191666D01*
X96487142Y-75239285D01*
X96391904Y-75286904D01*
X96153809Y-75286904D01*
X96058571Y-75239285D01*
X96010952Y-75191666D01*
X95963333Y-75096428D01*
X95963333Y-74905952D01*
X96010952Y-74810714D01*
X96058571Y-74763095D01*
X96153809Y-74715476D01*
%TO.C,R47*%
X96382380Y-83682142D02*
X95906190Y-83348809D01*
X96382380Y-83110714D02*
X95382380Y-83110714D01*
X95382380Y-83491666D01*
X95430000Y-83586904D01*
X95477619Y-83634523D01*
X95572857Y-83682142D01*
X95715714Y-83682142D01*
X95810952Y-83634523D01*
X95858571Y-83586904D01*
X95906190Y-83491666D01*
X95906190Y-83110714D01*
X95715714Y-84539285D02*
X96382380Y-84539285D01*
X95334761Y-84301190D02*
X96049047Y-84063095D01*
X96049047Y-84682142D01*
X95382380Y-84967857D02*
X95382380Y-85634523D01*
X96382380Y-85205952D01*
%TO.C,R50*%
X96382380Y-78482142D02*
X95906190Y-78148809D01*
X96382380Y-77910714D02*
X95382380Y-77910714D01*
X95382380Y-78291666D01*
X95430000Y-78386904D01*
X95477619Y-78434523D01*
X95572857Y-78482142D01*
X95715714Y-78482142D01*
X95810952Y-78434523D01*
X95858571Y-78386904D01*
X95906190Y-78291666D01*
X95906190Y-77910714D01*
X95382380Y-79386904D02*
X95382380Y-78910714D01*
X95858571Y-78863095D01*
X95810952Y-78910714D01*
X95763333Y-79005952D01*
X95763333Y-79244047D01*
X95810952Y-79339285D01*
X95858571Y-79386904D01*
X95953809Y-79434523D01*
X96191904Y-79434523D01*
X96287142Y-79386904D01*
X96334761Y-79339285D01*
X96382380Y-79244047D01*
X96382380Y-79005952D01*
X96334761Y-78910714D01*
X96287142Y-78863095D01*
X95382380Y-80053571D02*
X95382380Y-80148809D01*
X95430000Y-80244047D01*
X95477619Y-80291666D01*
X95572857Y-80339285D01*
X95763333Y-80386904D01*
X96001428Y-80386904D01*
X96191904Y-80339285D01*
X96287142Y-80291666D01*
X96334761Y-80244047D01*
X96382380Y-80148809D01*
X96382380Y-80053571D01*
X96334761Y-79958333D01*
X96287142Y-79910714D01*
X96191904Y-79863095D01*
X96001428Y-79815476D01*
X95763333Y-79815476D01*
X95572857Y-79863095D01*
X95477619Y-79910714D01*
X95430000Y-79958333D01*
X95382380Y-80053571D01*
%TO.C,R96*%
X89766380Y-99624142D02*
X89290190Y-99290809D01*
X89766380Y-99052714D02*
X88766380Y-99052714D01*
X88766380Y-99433666D01*
X88814000Y-99528904D01*
X88861619Y-99576523D01*
X88956857Y-99624142D01*
X89099714Y-99624142D01*
X89194952Y-99576523D01*
X89242571Y-99528904D01*
X89290190Y-99433666D01*
X89290190Y-99052714D01*
X89766380Y-100100333D02*
X89766380Y-100290809D01*
X89718761Y-100386047D01*
X89671142Y-100433666D01*
X89528285Y-100528904D01*
X89337809Y-100576523D01*
X88956857Y-100576523D01*
X88861619Y-100528904D01*
X88814000Y-100481285D01*
X88766380Y-100386047D01*
X88766380Y-100195571D01*
X88814000Y-100100333D01*
X88861619Y-100052714D01*
X88956857Y-100005095D01*
X89194952Y-100005095D01*
X89290190Y-100052714D01*
X89337809Y-100100333D01*
X89385428Y-100195571D01*
X89385428Y-100386047D01*
X89337809Y-100481285D01*
X89290190Y-100528904D01*
X89194952Y-100576523D01*
X88766380Y-101433666D02*
X88766380Y-101243190D01*
X88814000Y-101147952D01*
X88861619Y-101100333D01*
X89004476Y-101005095D01*
X89194952Y-100957476D01*
X89575904Y-100957476D01*
X89671142Y-101005095D01*
X89718761Y-101052714D01*
X89766380Y-101147952D01*
X89766380Y-101338428D01*
X89718761Y-101433666D01*
X89671142Y-101481285D01*
X89575904Y-101528904D01*
X89337809Y-101528904D01*
X89242571Y-101481285D01*
X89194952Y-101433666D01*
X89147333Y-101338428D01*
X89147333Y-101147952D01*
X89194952Y-101052714D01*
X89242571Y-101005095D01*
X89337809Y-100957476D01*
%TO.C,R35*%
X80482380Y-69107142D02*
X80006190Y-68773809D01*
X80482380Y-68535714D02*
X79482380Y-68535714D01*
X79482380Y-68916666D01*
X79530000Y-69011904D01*
X79577619Y-69059523D01*
X79672857Y-69107142D01*
X79815714Y-69107142D01*
X79910952Y-69059523D01*
X79958571Y-69011904D01*
X80006190Y-68916666D01*
X80006190Y-68535714D01*
X79482380Y-69440476D02*
X79482380Y-70059523D01*
X79863333Y-69726190D01*
X79863333Y-69869047D01*
X79910952Y-69964285D01*
X79958571Y-70011904D01*
X80053809Y-70059523D01*
X80291904Y-70059523D01*
X80387142Y-70011904D01*
X80434761Y-69964285D01*
X80482380Y-69869047D01*
X80482380Y-69583333D01*
X80434761Y-69488095D01*
X80387142Y-69440476D01*
X79482380Y-70964285D02*
X79482380Y-70488095D01*
X79958571Y-70440476D01*
X79910952Y-70488095D01*
X79863333Y-70583333D01*
X79863333Y-70821428D01*
X79910952Y-70916666D01*
X79958571Y-70964285D01*
X80053809Y-71011904D01*
X80291904Y-71011904D01*
X80387142Y-70964285D01*
X80434761Y-70916666D01*
X80482380Y-70821428D01*
X80482380Y-70583333D01*
X80434761Y-70488095D01*
X80387142Y-70440476D01*
%TO.C,Q38*%
X83491619Y-98313071D02*
X83444000Y-98217833D01*
X83348761Y-98122595D01*
X83205904Y-97979738D01*
X83158285Y-97884500D01*
X83158285Y-97789261D01*
X83396380Y-97836880D02*
X83348761Y-97741642D01*
X83253523Y-97646404D01*
X83063047Y-97598785D01*
X82729714Y-97598785D01*
X82539238Y-97646404D01*
X82444000Y-97741642D01*
X82396380Y-97836880D01*
X82396380Y-98027357D01*
X82444000Y-98122595D01*
X82539238Y-98217833D01*
X82729714Y-98265452D01*
X83063047Y-98265452D01*
X83253523Y-98217833D01*
X83348761Y-98122595D01*
X83396380Y-98027357D01*
X83396380Y-97836880D01*
X82396380Y-98598785D02*
X82396380Y-99217833D01*
X82777333Y-98884500D01*
X82777333Y-99027357D01*
X82824952Y-99122595D01*
X82872571Y-99170214D01*
X82967809Y-99217833D01*
X83205904Y-99217833D01*
X83301142Y-99170214D01*
X83348761Y-99122595D01*
X83396380Y-99027357D01*
X83396380Y-98741642D01*
X83348761Y-98646404D01*
X83301142Y-98598785D01*
X82824952Y-99789261D02*
X82777333Y-99694023D01*
X82729714Y-99646404D01*
X82634476Y-99598785D01*
X82586857Y-99598785D01*
X82491619Y-99646404D01*
X82444000Y-99694023D01*
X82396380Y-99789261D01*
X82396380Y-99979738D01*
X82444000Y-100074976D01*
X82491619Y-100122595D01*
X82586857Y-100170214D01*
X82634476Y-100170214D01*
X82729714Y-100122595D01*
X82777333Y-100074976D01*
X82824952Y-99979738D01*
X82824952Y-99789261D01*
X82872571Y-99694023D01*
X82920190Y-99646404D01*
X83015428Y-99598785D01*
X83205904Y-99598785D01*
X83301142Y-99646404D01*
X83348761Y-99694023D01*
X83396380Y-99789261D01*
X83396380Y-99979738D01*
X83348761Y-100074976D01*
X83301142Y-100122595D01*
X83205904Y-100170214D01*
X83015428Y-100170214D01*
X82920190Y-100122595D01*
X82872571Y-100074976D01*
X82824952Y-99979738D01*
%TO.C,Q40*%
X83364619Y-112331571D02*
X83317000Y-112236333D01*
X83221761Y-112141095D01*
X83078904Y-111998238D01*
X83031285Y-111903000D01*
X83031285Y-111807761D01*
X83269380Y-111855380D02*
X83221761Y-111760142D01*
X83126523Y-111664904D01*
X82936047Y-111617285D01*
X82602714Y-111617285D01*
X82412238Y-111664904D01*
X82317000Y-111760142D01*
X82269380Y-111855380D01*
X82269380Y-112045857D01*
X82317000Y-112141095D01*
X82412238Y-112236333D01*
X82602714Y-112283952D01*
X82936047Y-112283952D01*
X83126523Y-112236333D01*
X83221761Y-112141095D01*
X83269380Y-112045857D01*
X83269380Y-111855380D01*
X82602714Y-113141095D02*
X83269380Y-113141095D01*
X82221761Y-112903000D02*
X82936047Y-112664904D01*
X82936047Y-113283952D01*
X82269380Y-113855380D02*
X82269380Y-113950619D01*
X82317000Y-114045857D01*
X82364619Y-114093476D01*
X82459857Y-114141095D01*
X82650333Y-114188714D01*
X82888428Y-114188714D01*
X83078904Y-114141095D01*
X83174142Y-114093476D01*
X83221761Y-114045857D01*
X83269380Y-113950619D01*
X83269380Y-113855380D01*
X83221761Y-113760142D01*
X83174142Y-113712523D01*
X83078904Y-113664904D01*
X82888428Y-113617285D01*
X82650333Y-113617285D01*
X82459857Y-113664904D01*
X82364619Y-113712523D01*
X82317000Y-113760142D01*
X82269380Y-113855380D01*
%TO.C,R51*%
X96327380Y-88957142D02*
X95851190Y-88623809D01*
X96327380Y-88385714D02*
X95327380Y-88385714D01*
X95327380Y-88766666D01*
X95375000Y-88861904D01*
X95422619Y-88909523D01*
X95517857Y-88957142D01*
X95660714Y-88957142D01*
X95755952Y-88909523D01*
X95803571Y-88861904D01*
X95851190Y-88766666D01*
X95851190Y-88385714D01*
X95327380Y-89861904D02*
X95327380Y-89385714D01*
X95803571Y-89338095D01*
X95755952Y-89385714D01*
X95708333Y-89480952D01*
X95708333Y-89719047D01*
X95755952Y-89814285D01*
X95803571Y-89861904D01*
X95898809Y-89909523D01*
X96136904Y-89909523D01*
X96232142Y-89861904D01*
X96279761Y-89814285D01*
X96327380Y-89719047D01*
X96327380Y-89480952D01*
X96279761Y-89385714D01*
X96232142Y-89338095D01*
X96327380Y-90861904D02*
X96327380Y-90290476D01*
X96327380Y-90576190D02*
X95327380Y-90576190D01*
X95470238Y-90480952D01*
X95565476Y-90385714D01*
X95613095Y-90290476D01*
%TO.C,Q36*%
X83351619Y-102806571D02*
X83304000Y-102711333D01*
X83208761Y-102616095D01*
X83065904Y-102473238D01*
X83018285Y-102378000D01*
X83018285Y-102282761D01*
X83256380Y-102330380D02*
X83208761Y-102235142D01*
X83113523Y-102139904D01*
X82923047Y-102092285D01*
X82589714Y-102092285D01*
X82399238Y-102139904D01*
X82304000Y-102235142D01*
X82256380Y-102330380D01*
X82256380Y-102520857D01*
X82304000Y-102616095D01*
X82399238Y-102711333D01*
X82589714Y-102758952D01*
X82923047Y-102758952D01*
X83113523Y-102711333D01*
X83208761Y-102616095D01*
X83256380Y-102520857D01*
X83256380Y-102330380D01*
X82256380Y-103092285D02*
X82256380Y-103711333D01*
X82637333Y-103378000D01*
X82637333Y-103520857D01*
X82684952Y-103616095D01*
X82732571Y-103663714D01*
X82827809Y-103711333D01*
X83065904Y-103711333D01*
X83161142Y-103663714D01*
X83208761Y-103616095D01*
X83256380Y-103520857D01*
X83256380Y-103235142D01*
X83208761Y-103139904D01*
X83161142Y-103092285D01*
X82256380Y-104568476D02*
X82256380Y-104378000D01*
X82304000Y-104282761D01*
X82351619Y-104235142D01*
X82494476Y-104139904D01*
X82684952Y-104092285D01*
X83065904Y-104092285D01*
X83161142Y-104139904D01*
X83208761Y-104187523D01*
X83256380Y-104282761D01*
X83256380Y-104473238D01*
X83208761Y-104568476D01*
X83161142Y-104616095D01*
X83065904Y-104663714D01*
X82827809Y-104663714D01*
X82732571Y-104616095D01*
X82684952Y-104568476D01*
X82637333Y-104473238D01*
X82637333Y-104282761D01*
X82684952Y-104187523D01*
X82732571Y-104139904D01*
X82827809Y-104092285D01*
%TO.C,R44*%
X80307380Y-64657142D02*
X79831190Y-64323809D01*
X80307380Y-64085714D02*
X79307380Y-64085714D01*
X79307380Y-64466666D01*
X79355000Y-64561904D01*
X79402619Y-64609523D01*
X79497857Y-64657142D01*
X79640714Y-64657142D01*
X79735952Y-64609523D01*
X79783571Y-64561904D01*
X79831190Y-64466666D01*
X79831190Y-64085714D01*
X79640714Y-65514285D02*
X80307380Y-65514285D01*
X79259761Y-65276190D02*
X79974047Y-65038095D01*
X79974047Y-65657142D01*
X79640714Y-66466666D02*
X80307380Y-66466666D01*
X79259761Y-66228571D02*
X79974047Y-65990476D01*
X79974047Y-66609523D01*
%TO.C,R33*%
X80332380Y-58382142D02*
X79856190Y-58048809D01*
X80332380Y-57810714D02*
X79332380Y-57810714D01*
X79332380Y-58191666D01*
X79380000Y-58286904D01*
X79427619Y-58334523D01*
X79522857Y-58382142D01*
X79665714Y-58382142D01*
X79760952Y-58334523D01*
X79808571Y-58286904D01*
X79856190Y-58191666D01*
X79856190Y-57810714D01*
X79332380Y-58715476D02*
X79332380Y-59334523D01*
X79713333Y-59001190D01*
X79713333Y-59144047D01*
X79760952Y-59239285D01*
X79808571Y-59286904D01*
X79903809Y-59334523D01*
X80141904Y-59334523D01*
X80237142Y-59286904D01*
X80284761Y-59239285D01*
X80332380Y-59144047D01*
X80332380Y-58858333D01*
X80284761Y-58763095D01*
X80237142Y-58715476D01*
X79332380Y-59667857D02*
X79332380Y-60286904D01*
X79713333Y-59953571D01*
X79713333Y-60096428D01*
X79760952Y-60191666D01*
X79808571Y-60239285D01*
X79903809Y-60286904D01*
X80141904Y-60286904D01*
X80237142Y-60239285D01*
X80284761Y-60191666D01*
X80332380Y-60096428D01*
X80332380Y-59810714D01*
X80284761Y-59715476D01*
X80237142Y-59667857D01*
%TO.C,D27*%
X69777380Y-60335714D02*
X68777380Y-60335714D01*
X68777380Y-60573809D01*
X68825000Y-60716666D01*
X68920238Y-60811904D01*
X69015476Y-60859523D01*
X69205952Y-60907142D01*
X69348809Y-60907142D01*
X69539285Y-60859523D01*
X69634523Y-60811904D01*
X69729761Y-60716666D01*
X69777380Y-60573809D01*
X69777380Y-60335714D01*
X68872619Y-61288095D02*
X68825000Y-61335714D01*
X68777380Y-61430952D01*
X68777380Y-61669047D01*
X68825000Y-61764285D01*
X68872619Y-61811904D01*
X68967857Y-61859523D01*
X69063095Y-61859523D01*
X69205952Y-61811904D01*
X69777380Y-61240476D01*
X69777380Y-61859523D01*
X68777380Y-62192857D02*
X68777380Y-62859523D01*
X69777380Y-62430952D01*
%TO.C,Q39*%
X83364619Y-118341071D02*
X83317000Y-118245833D01*
X83221761Y-118150595D01*
X83078904Y-118007738D01*
X83031285Y-117912500D01*
X83031285Y-117817261D01*
X83269380Y-117864880D02*
X83221761Y-117769642D01*
X83126523Y-117674404D01*
X82936047Y-117626785D01*
X82602714Y-117626785D01*
X82412238Y-117674404D01*
X82317000Y-117769642D01*
X82269380Y-117864880D01*
X82269380Y-118055357D01*
X82317000Y-118150595D01*
X82412238Y-118245833D01*
X82602714Y-118293452D01*
X82936047Y-118293452D01*
X83126523Y-118245833D01*
X83221761Y-118150595D01*
X83269380Y-118055357D01*
X83269380Y-117864880D01*
X82269380Y-118626785D02*
X82269380Y-119245833D01*
X82650333Y-118912500D01*
X82650333Y-119055357D01*
X82697952Y-119150595D01*
X82745571Y-119198214D01*
X82840809Y-119245833D01*
X83078904Y-119245833D01*
X83174142Y-119198214D01*
X83221761Y-119150595D01*
X83269380Y-119055357D01*
X83269380Y-118769642D01*
X83221761Y-118674404D01*
X83174142Y-118626785D01*
X83269380Y-119722023D02*
X83269380Y-119912500D01*
X83221761Y-120007738D01*
X83174142Y-120055357D01*
X83031285Y-120150595D01*
X82840809Y-120198214D01*
X82459857Y-120198214D01*
X82364619Y-120150595D01*
X82317000Y-120102976D01*
X82269380Y-120007738D01*
X82269380Y-119817261D01*
X82317000Y-119722023D01*
X82364619Y-119674404D01*
X82459857Y-119626785D01*
X82697952Y-119626785D01*
X82793190Y-119674404D01*
X82840809Y-119722023D01*
X82888428Y-119817261D01*
X82888428Y-120007738D01*
X82840809Y-120102976D01*
X82793190Y-120150595D01*
X82697952Y-120198214D01*
%TO.C,R101*%
X89512380Y-130325952D02*
X89036190Y-129992619D01*
X89512380Y-129754523D02*
X88512380Y-129754523D01*
X88512380Y-130135476D01*
X88560000Y-130230714D01*
X88607619Y-130278333D01*
X88702857Y-130325952D01*
X88845714Y-130325952D01*
X88940952Y-130278333D01*
X88988571Y-130230714D01*
X89036190Y-130135476D01*
X89036190Y-129754523D01*
X89512380Y-131278333D02*
X89512380Y-130706904D01*
X89512380Y-130992619D02*
X88512380Y-130992619D01*
X88655238Y-130897380D01*
X88750476Y-130802142D01*
X88798095Y-130706904D01*
X88512380Y-131897380D02*
X88512380Y-131992619D01*
X88560000Y-132087857D01*
X88607619Y-132135476D01*
X88702857Y-132183095D01*
X88893333Y-132230714D01*
X89131428Y-132230714D01*
X89321904Y-132183095D01*
X89417142Y-132135476D01*
X89464761Y-132087857D01*
X89512380Y-131992619D01*
X89512380Y-131897380D01*
X89464761Y-131802142D01*
X89417142Y-131754523D01*
X89321904Y-131706904D01*
X89131428Y-131659285D01*
X88893333Y-131659285D01*
X88702857Y-131706904D01*
X88607619Y-131754523D01*
X88560000Y-131802142D01*
X88512380Y-131897380D01*
X89512380Y-133183095D02*
X89512380Y-132611666D01*
X89512380Y-132897380D02*
X88512380Y-132897380D01*
X88655238Y-132802142D01*
X88750476Y-132706904D01*
X88798095Y-132611666D01*
%TO.C,Q37*%
X83364619Y-122364571D02*
X83317000Y-122269333D01*
X83221761Y-122174095D01*
X83078904Y-122031238D01*
X83031285Y-121936000D01*
X83031285Y-121840761D01*
X83269380Y-121888380D02*
X83221761Y-121793142D01*
X83126523Y-121697904D01*
X82936047Y-121650285D01*
X82602714Y-121650285D01*
X82412238Y-121697904D01*
X82317000Y-121793142D01*
X82269380Y-121888380D01*
X82269380Y-122078857D01*
X82317000Y-122174095D01*
X82412238Y-122269333D01*
X82602714Y-122316952D01*
X82936047Y-122316952D01*
X83126523Y-122269333D01*
X83221761Y-122174095D01*
X83269380Y-122078857D01*
X83269380Y-121888380D01*
X82269380Y-122650285D02*
X82269380Y-123269333D01*
X82650333Y-122936000D01*
X82650333Y-123078857D01*
X82697952Y-123174095D01*
X82745571Y-123221714D01*
X82840809Y-123269333D01*
X83078904Y-123269333D01*
X83174142Y-123221714D01*
X83221761Y-123174095D01*
X83269380Y-123078857D01*
X83269380Y-122793142D01*
X83221761Y-122697904D01*
X83174142Y-122650285D01*
X82269380Y-123602666D02*
X82269380Y-124269333D01*
X83269380Y-123840761D01*
%TO.C,D37*%
X69802380Y-70335714D02*
X68802380Y-70335714D01*
X68802380Y-70573809D01*
X68850000Y-70716666D01*
X68945238Y-70811904D01*
X69040476Y-70859523D01*
X69230952Y-70907142D01*
X69373809Y-70907142D01*
X69564285Y-70859523D01*
X69659523Y-70811904D01*
X69754761Y-70716666D01*
X69802380Y-70573809D01*
X69802380Y-70335714D01*
X68802380Y-71240476D02*
X68802380Y-71859523D01*
X69183333Y-71526190D01*
X69183333Y-71669047D01*
X69230952Y-71764285D01*
X69278571Y-71811904D01*
X69373809Y-71859523D01*
X69611904Y-71859523D01*
X69707142Y-71811904D01*
X69754761Y-71764285D01*
X69802380Y-71669047D01*
X69802380Y-71383333D01*
X69754761Y-71288095D01*
X69707142Y-71240476D01*
X68802380Y-72192857D02*
X68802380Y-72859523D01*
X69802380Y-72430952D01*
%TO.C,R48*%
X80482380Y-74332142D02*
X80006190Y-73998809D01*
X80482380Y-73760714D02*
X79482380Y-73760714D01*
X79482380Y-74141666D01*
X79530000Y-74236904D01*
X79577619Y-74284523D01*
X79672857Y-74332142D01*
X79815714Y-74332142D01*
X79910952Y-74284523D01*
X79958571Y-74236904D01*
X80006190Y-74141666D01*
X80006190Y-73760714D01*
X79815714Y-75189285D02*
X80482380Y-75189285D01*
X79434761Y-74951190D02*
X80149047Y-74713095D01*
X80149047Y-75332142D01*
X79910952Y-75855952D02*
X79863333Y-75760714D01*
X79815714Y-75713095D01*
X79720476Y-75665476D01*
X79672857Y-75665476D01*
X79577619Y-75713095D01*
X79530000Y-75760714D01*
X79482380Y-75855952D01*
X79482380Y-76046428D01*
X79530000Y-76141666D01*
X79577619Y-76189285D01*
X79672857Y-76236904D01*
X79720476Y-76236904D01*
X79815714Y-76189285D01*
X79863333Y-76141666D01*
X79910952Y-76046428D01*
X79910952Y-75855952D01*
X79958571Y-75760714D01*
X80006190Y-75713095D01*
X80101428Y-75665476D01*
X80291904Y-75665476D01*
X80387142Y-75713095D01*
X80434761Y-75760714D01*
X80482380Y-75855952D01*
X80482380Y-76046428D01*
X80434761Y-76141666D01*
X80387142Y-76189285D01*
X80291904Y-76236904D01*
X80101428Y-76236904D01*
X80006190Y-76189285D01*
X79958571Y-76141666D01*
X79910952Y-76046428D01*
%TO.C,R99*%
X89034857Y-116403380D02*
X89368190Y-115927190D01*
X89606285Y-116403380D02*
X89606285Y-115403380D01*
X89225333Y-115403380D01*
X89130095Y-115451000D01*
X89082476Y-115498619D01*
X89034857Y-115593857D01*
X89034857Y-115736714D01*
X89082476Y-115831952D01*
X89130095Y-115879571D01*
X89225333Y-115927190D01*
X89606285Y-115927190D01*
X88558666Y-116403380D02*
X88368190Y-116403380D01*
X88272952Y-116355761D01*
X88225333Y-116308142D01*
X88130095Y-116165285D01*
X88082476Y-115974809D01*
X88082476Y-115593857D01*
X88130095Y-115498619D01*
X88177714Y-115451000D01*
X88272952Y-115403380D01*
X88463428Y-115403380D01*
X88558666Y-115451000D01*
X88606285Y-115498619D01*
X88653904Y-115593857D01*
X88653904Y-115831952D01*
X88606285Y-115927190D01*
X88558666Y-115974809D01*
X88463428Y-116022428D01*
X88272952Y-116022428D01*
X88177714Y-115974809D01*
X88130095Y-115927190D01*
X88082476Y-115831952D01*
X87606285Y-116403380D02*
X87415809Y-116403380D01*
X87320571Y-116355761D01*
X87272952Y-116308142D01*
X87177714Y-116165285D01*
X87130095Y-115974809D01*
X87130095Y-115593857D01*
X87177714Y-115498619D01*
X87225333Y-115451000D01*
X87320571Y-115403380D01*
X87511047Y-115403380D01*
X87606285Y-115451000D01*
X87653904Y-115498619D01*
X87701523Y-115593857D01*
X87701523Y-115831952D01*
X87653904Y-115927190D01*
X87606285Y-115974809D01*
X87511047Y-116022428D01*
X87320571Y-116022428D01*
X87225333Y-115974809D01*
X87177714Y-115927190D01*
X87130095Y-115831952D01*
%TO.C,U4*%
X88273704Y-83967780D02*
X88273704Y-84777304D01*
X88226085Y-84872542D01*
X88178466Y-84920161D01*
X88083228Y-84967780D01*
X87892752Y-84967780D01*
X87797514Y-84920161D01*
X87749895Y-84872542D01*
X87702276Y-84777304D01*
X87702276Y-83967780D01*
X86797514Y-84301114D02*
X86797514Y-84967780D01*
X87035609Y-83920161D02*
X87273704Y-84634447D01*
X86654657Y-84634447D01*
%TO.C,R45*%
X80682380Y-82257142D02*
X80206190Y-81923809D01*
X80682380Y-81685714D02*
X79682380Y-81685714D01*
X79682380Y-82066666D01*
X79730000Y-82161904D01*
X79777619Y-82209523D01*
X79872857Y-82257142D01*
X80015714Y-82257142D01*
X80110952Y-82209523D01*
X80158571Y-82161904D01*
X80206190Y-82066666D01*
X80206190Y-81685714D01*
X80015714Y-83114285D02*
X80682380Y-83114285D01*
X79634761Y-82876190D02*
X80349047Y-82638095D01*
X80349047Y-83257142D01*
X79682380Y-84114285D02*
X79682380Y-83638095D01*
X80158571Y-83590476D01*
X80110952Y-83638095D01*
X80063333Y-83733333D01*
X80063333Y-83971428D01*
X80110952Y-84066666D01*
X80158571Y-84114285D01*
X80253809Y-84161904D01*
X80491904Y-84161904D01*
X80587142Y-84114285D01*
X80634761Y-84066666D01*
X80682380Y-83971428D01*
X80682380Y-83733333D01*
X80634761Y-83638095D01*
X80587142Y-83590476D01*
%TO.C,R36*%
X80957380Y-86182142D02*
X80481190Y-85848809D01*
X80957380Y-85610714D02*
X79957380Y-85610714D01*
X79957380Y-85991666D01*
X80005000Y-86086904D01*
X80052619Y-86134523D01*
X80147857Y-86182142D01*
X80290714Y-86182142D01*
X80385952Y-86134523D01*
X80433571Y-86086904D01*
X80481190Y-85991666D01*
X80481190Y-85610714D01*
X79957380Y-86515476D02*
X79957380Y-87134523D01*
X80338333Y-86801190D01*
X80338333Y-86944047D01*
X80385952Y-87039285D01*
X80433571Y-87086904D01*
X80528809Y-87134523D01*
X80766904Y-87134523D01*
X80862142Y-87086904D01*
X80909761Y-87039285D01*
X80957380Y-86944047D01*
X80957380Y-86658333D01*
X80909761Y-86563095D01*
X80862142Y-86515476D01*
X79957380Y-87991666D02*
X79957380Y-87801190D01*
X80005000Y-87705952D01*
X80052619Y-87658333D01*
X80195476Y-87563095D01*
X80385952Y-87515476D01*
X80766904Y-87515476D01*
X80862142Y-87563095D01*
X80909761Y-87610714D01*
X80957380Y-87705952D01*
X80957380Y-87896428D01*
X80909761Y-87991666D01*
X80862142Y-88039285D01*
X80766904Y-88086904D01*
X80528809Y-88086904D01*
X80433571Y-88039285D01*
X80385952Y-87991666D01*
X80338333Y-87896428D01*
X80338333Y-87705952D01*
X80385952Y-87610714D01*
X80433571Y-87563095D01*
X80528809Y-87515476D01*
D11*
%TO.C,R49*%
X78552500Y-90287258D02*
X78552500Y-89812742D01*
X79597500Y-90287258D02*
X79597500Y-89812742D01*
%TO.C,D36*%
X70475000Y-79150000D02*
X72475000Y-79150000D01*
X70475000Y-79150000D02*
X70475000Y-83050000D01*
X72475000Y-79150000D02*
X72475000Y-83050000D01*
%TO.C,Q42*%
X86785000Y-108837500D02*
X86785000Y-109487500D01*
X83665000Y-108837500D02*
X83665000Y-107162500D01*
X86785000Y-108837500D02*
X86785000Y-108187500D01*
X83665000Y-108837500D02*
X83665000Y-109487500D01*
%TO.C,R31*%
X224601300Y-139696458D02*
X224601300Y-139221942D01*
X223556300Y-139696458D02*
X223556300Y-139221942D01*
%TO.C,Q43*%
X83530000Y-129987500D02*
X83530000Y-128312500D01*
X83530000Y-129987500D02*
X83530000Y-130637500D01*
X86650000Y-129987500D02*
X86650000Y-130637500D01*
X86650000Y-129987500D02*
X86650000Y-129337500D01*
%TO.C,Q41*%
X86650000Y-133985000D02*
X86650000Y-133335000D01*
X83530000Y-133985000D02*
X83530000Y-134635000D01*
X86650000Y-133985000D02*
X86650000Y-134635000D01*
X83530000Y-133985000D02*
X83530000Y-132310000D01*
%TO.C,R34*%
X78277500Y-79837258D02*
X78277500Y-79362742D01*
X79322500Y-79837258D02*
X79322500Y-79362742D01*
%TO.C,R103*%
X85327258Y-127522500D02*
X84852742Y-127522500D01*
X85327258Y-126477500D02*
X84852742Y-126477500D01*
%TO.C,R102*%
X85454258Y-106440500D02*
X84979742Y-106440500D01*
X85454258Y-105395500D02*
X84979742Y-105395500D01*
%TO.C,R32*%
X224601300Y-142472142D02*
X224601300Y-142946658D01*
X223556300Y-142472142D02*
X223556300Y-142946658D01*
%TO.C,R97*%
X87234500Y-121078258D02*
X87234500Y-120603742D01*
X88279500Y-121078258D02*
X88279500Y-120603742D01*
%TO.C,R98*%
X85391258Y-95489500D02*
X84916742Y-95489500D01*
X85391258Y-96534500D02*
X84916742Y-96534500D01*
%TO.C,D38*%
X70550000Y-89675000D02*
X72550000Y-89675000D01*
X72550000Y-89675000D02*
X72550000Y-93575000D01*
X70550000Y-89675000D02*
X70550000Y-93575000D01*
%TO.C,R100*%
X87234500Y-111045258D02*
X87234500Y-110570742D01*
X88279500Y-111045258D02*
X88279500Y-110570742D01*
%TO.C,R46*%
X94177500Y-74262258D02*
X94177500Y-73787742D01*
X95222500Y-74262258D02*
X95222500Y-73787742D01*
%TO.C,R47*%
X95022500Y-84562258D02*
X95022500Y-84087742D01*
X93977500Y-84562258D02*
X93977500Y-84087742D01*
%TO.C,R50*%
X95022500Y-79362258D02*
X95022500Y-78887742D01*
X93977500Y-79362258D02*
X93977500Y-78887742D01*
%TO.C,R96*%
X87361500Y-100504258D02*
X87361500Y-100029742D01*
X88406500Y-100504258D02*
X88406500Y-100029742D01*
%TO.C,R35*%
X78077500Y-69987258D02*
X78077500Y-69512742D01*
X79122500Y-69987258D02*
X79122500Y-69512742D01*
%TO.C,Q38*%
X86904000Y-98884500D02*
X86904000Y-99534500D01*
X86904000Y-98884500D02*
X86904000Y-98234500D01*
X83784000Y-98884500D02*
X83784000Y-99534500D01*
X83784000Y-98884500D02*
X83784000Y-97209500D01*
%TO.C,Q40*%
X83657000Y-112903000D02*
X83657000Y-111228000D01*
X86777000Y-112903000D02*
X86777000Y-113553000D01*
X86777000Y-112903000D02*
X86777000Y-112253000D01*
X83657000Y-112903000D02*
X83657000Y-113553000D01*
%TO.C,R51*%
X94947500Y-89812258D02*
X94947500Y-89337742D01*
X93902500Y-89812258D02*
X93902500Y-89337742D01*
%TO.C,Q36*%
X86904000Y-102997000D02*
X86904000Y-103647000D01*
X83784000Y-102997000D02*
X83784000Y-101322000D01*
X83784000Y-102997000D02*
X83784000Y-103647000D01*
X86904000Y-102997000D02*
X86904000Y-102347000D01*
%TO.C,R44*%
X78947500Y-65537258D02*
X78947500Y-65062742D01*
X77902500Y-65537258D02*
X77902500Y-65062742D01*
%TO.C,R33*%
X77927500Y-59262258D02*
X77927500Y-58787742D01*
X78972500Y-59262258D02*
X78972500Y-58787742D01*
%TO.C,D27*%
X70325000Y-59300000D02*
X72325000Y-59300000D01*
X72325000Y-59300000D02*
X72325000Y-63200000D01*
X70325000Y-59300000D02*
X70325000Y-63200000D01*
%TO.C,Q39*%
X86777000Y-118912500D02*
X86777000Y-119562500D01*
X83657000Y-118912500D02*
X83657000Y-117237500D01*
X86777000Y-118912500D02*
X86777000Y-118262500D01*
X83657000Y-118912500D02*
X83657000Y-119562500D01*
%TO.C,R101*%
X87107500Y-131682258D02*
X87107500Y-131207742D01*
X88152500Y-131682258D02*
X88152500Y-131207742D01*
%TO.C,Q37*%
X83657000Y-122936000D02*
X83657000Y-121261000D01*
X86777000Y-122936000D02*
X86777000Y-123586000D01*
X83657000Y-122936000D02*
X83657000Y-123586000D01*
X86777000Y-122936000D02*
X86777000Y-122286000D01*
%TO.C,D37*%
X70350000Y-69300000D02*
X70350000Y-73200000D01*
X72350000Y-69300000D02*
X72350000Y-73200000D01*
X70350000Y-69300000D02*
X72350000Y-69300000D01*
%TO.C,R48*%
X79122500Y-75212258D02*
X79122500Y-74737742D01*
X78077500Y-75212258D02*
X78077500Y-74737742D01*
%TO.C,R99*%
X85454258Y-116473500D02*
X84979742Y-116473500D01*
X85454258Y-115428500D02*
X84979742Y-115428500D01*
%TO.C,U4*%
X86400000Y-92170000D02*
X84165000Y-92170000D01*
X90635000Y-71730000D02*
X90635000Y-92170000D01*
X84165000Y-71730000D02*
X90635000Y-71730000D01*
X84165000Y-92170000D02*
X84165000Y-71730000D01*
X90635000Y-92170000D02*
X88400000Y-92170000D01*
X88400000Y-92170000D02*
G75*
G03*
X86400000Y-92170000I-1000000J0D01*
G01*
%TO.C,R45*%
X79322500Y-83137258D02*
X79322500Y-82662742D01*
X78277500Y-83137258D02*
X78277500Y-82662742D01*
%TO.C,R36*%
X78552500Y-87062258D02*
X78552500Y-86587742D01*
X79597500Y-87062258D02*
X79597500Y-86587742D01*
%TD*%
M02*
