%TF.GenerationSoftware,KiCad,Pcbnew,(6.0.5)*%
%TF.CreationDate,2023-05-15T14:24:38+02:00*%
%TF.ProjectId,stm32_prototyp,73746d33-325f-4707-926f-746f7479702e,rev?*%
%TF.SameCoordinates,Original*%
%TF.FileFunction,Soldermask,Top*%
%TF.FilePolarity,Negative*%
%FSLAX46Y46*%
G04 Gerber Fmt 4.6, Leading zero omitted, Abs format (unit mm)*
G04 Created by KiCad (PCBNEW (6.0.5)) date 2023-05-15 14:24:38*
%MOMM*%
%LPD*%
G01*
G04 APERTURE LIST*
G04 Aperture macros list*
%AMRoundRect*
0 Rectangle with rounded corners*
0 $1 Rounding radius*
0 $2 $3 $4 $5 $6 $7 $8 $9 X,Y pos of 4 corners*
0 Add a 4 corners polygon primitive as box body*
4,1,4,$2,$3,$4,$5,$6,$7,$8,$9,$2,$3,0*
0 Add four circle primitives for the rounded corners*
1,1,$1+$1,$2,$3*
1,1,$1+$1,$4,$5*
1,1,$1+$1,$6,$7*
1,1,$1+$1,$8,$9*
0 Add four rect primitives between the rounded corners*
20,1,$1+$1,$2,$3,$4,$5,0*
20,1,$1+$1,$4,$5,$6,$7,0*
20,1,$1+$1,$6,$7,$8,$9,0*
20,1,$1+$1,$8,$9,$2,$3,0*%
G04 Aperture macros list end*
%ADD10RoundRect,0.200000X-0.200000X-0.275000X0.200000X-0.275000X0.200000X0.275000X-0.200000X0.275000X0*%
%ADD11RoundRect,0.218750X-0.218750X-0.256250X0.218750X-0.256250X0.218750X0.256250X-0.218750X0.256250X0*%
%ADD12RoundRect,0.200000X0.275000X-0.200000X0.275000X0.200000X-0.275000X0.200000X-0.275000X-0.200000X0*%
%ADD13R,0.760000X5.000000*%
%ADD14R,8.800000X4.500000*%
%ADD15RoundRect,0.250000X0.362500X1.425000X-0.362500X1.425000X-0.362500X-1.425000X0.362500X-1.425000X0*%
%ADD16R,1.700000X1.700000*%
%ADD17C,2.300000*%
%ADD18RoundRect,0.250000X-0.620000X-0.845000X0.620000X-0.845000X0.620000X0.845000X-0.620000X0.845000X0*%
%ADD19O,1.740000X2.190000*%
%ADD20RoundRect,0.225000X-0.225000X-0.250000X0.225000X-0.250000X0.225000X0.250000X-0.225000X0.250000X0*%
%ADD21RoundRect,0.150000X-0.825000X-0.150000X0.825000X-0.150000X0.825000X0.150000X-0.825000X0.150000X0*%
%ADD22RoundRect,0.200000X-0.275000X0.200000X-0.275000X-0.200000X0.275000X-0.200000X0.275000X0.200000X0*%
%ADD23RoundRect,0.225000X-0.250000X0.225000X-0.250000X-0.225000X0.250000X-0.225000X0.250000X0.225000X0*%
%ADD24RoundRect,0.200000X0.200000X0.275000X-0.200000X0.275000X-0.200000X-0.275000X0.200000X-0.275000X0*%
%ADD25R,3.000000X3.000000*%
%ADD26C,3.000000*%
%ADD27O,1.700000X1.700000*%
%ADD28RoundRect,0.140000X-0.140000X-0.170000X0.140000X-0.170000X0.140000X0.170000X-0.140000X0.170000X0*%
%ADD29RoundRect,0.250000X-0.325000X-0.650000X0.325000X-0.650000X0.325000X0.650000X-0.325000X0.650000X0*%
%ADD30RoundRect,0.225000X0.225000X0.250000X-0.225000X0.250000X-0.225000X-0.250000X0.225000X-0.250000X0*%
%ADD31R,1.800000X1.800000*%
%ADD32C,1.800000*%
%ADD33RoundRect,0.218750X-0.256250X0.218750X-0.256250X-0.218750X0.256250X-0.218750X0.256250X0.218750X0*%
%ADD34RoundRect,0.088500X-0.206500X0.516500X-0.206500X-0.516500X0.206500X-0.516500X0.206500X0.516500X0*%
%ADD35C,2.000000*%
%ADD36O,1.600000X2.000000*%
%ADD37R,2.100000X1.700000*%
%ADD38RoundRect,0.250000X-0.600000X0.600000X-0.600000X-0.600000X0.600000X-0.600000X0.600000X0.600000X0*%
%ADD39C,1.700000*%
%ADD40R,1.500000X1.050000*%
%ADD41O,1.500000X1.050000*%
%ADD42RoundRect,0.150000X-0.587500X-0.150000X0.587500X-0.150000X0.587500X0.150000X-0.587500X0.150000X0*%
%ADD43R,1.300000X1.300000*%
%ADD44C,1.300000*%
%ADD45O,1.900000X2.900000*%
%ADD46O,2.900000X1.900000*%
%ADD47R,4.600000X1.100000*%
%ADD48R,9.400000X10.800000*%
%ADD49RoundRect,0.075000X-0.662500X-0.075000X0.662500X-0.075000X0.662500X0.075000X-0.662500X0.075000X0*%
%ADD50RoundRect,0.075000X-0.075000X-0.662500X0.075000X-0.662500X0.075000X0.662500X-0.075000X0.662500X0*%
%ADD51RoundRect,0.150000X-0.150000X0.825000X-0.150000X-0.825000X0.150000X-0.825000X0.150000X0.825000X0*%
%ADD52RoundRect,0.140000X0.140000X0.170000X-0.140000X0.170000X-0.140000X-0.170000X0.140000X-0.170000X0*%
%ADD53RoundRect,0.150000X-0.150000X0.587500X-0.150000X-0.587500X0.150000X-0.587500X0.150000X0.587500X0*%
%ADD54C,1.600000*%
%ADD55RoundRect,0.225000X0.250000X-0.225000X0.250000X0.225000X-0.250000X0.225000X-0.250000X-0.225000X0*%
G04 APERTURE END LIST*
D10*
%TO.C,R14*%
X89650000Y-51400000D03*
X91300000Y-51400000D03*
%TD*%
D11*
%TO.C,D18*%
X86448400Y-58400000D03*
X88023400Y-58400000D03*
%TD*%
D10*
%TO.C,R43*%
X177572500Y-34302200D03*
X179222500Y-34302200D03*
%TD*%
D12*
%TO.C,R126*%
X214960200Y-46316400D03*
X214960200Y-44666400D03*
%TD*%
D11*
%TO.C,D5*%
X86448400Y-35650000D03*
X88023400Y-35650000D03*
%TD*%
%TO.C,D13*%
X86448400Y-49650000D03*
X88023400Y-49650000D03*
%TD*%
D10*
%TO.C,R17*%
X89650000Y-56650000D03*
X91300000Y-56650000D03*
%TD*%
D13*
%TO.C,J2*%
X115138200Y-151540600D03*
X113868200Y-151540600D03*
X112598200Y-151540600D03*
X111328200Y-151540600D03*
X110058200Y-151540600D03*
X108788200Y-151540600D03*
X107518200Y-151540600D03*
X106248200Y-151540600D03*
D14*
X110693200Y-135610600D03*
%TD*%
D15*
%TO.C,R123*%
X233807900Y-42594300D03*
X227882900Y-42594300D03*
%TD*%
D10*
%TO.C,R28*%
X191390000Y-72059800D03*
X193040000Y-72059800D03*
%TD*%
D16*
%TO.C,J31*%
X187365000Y-53160000D03*
%TD*%
D17*
%TO.C,F1*%
X223139000Y-55905400D03*
X223139000Y-51305400D03*
X223139000Y-40005400D03*
X223139000Y-35405400D03*
%TD*%
D18*
%TO.C,J14*%
X205867000Y-54432200D03*
D19*
X208407000Y-54432200D03*
X210947000Y-54432200D03*
X213487000Y-54432200D03*
%TD*%
D10*
%TO.C,R19*%
X89650000Y-60150000D03*
X91300000Y-60150000D03*
%TD*%
D11*
%TO.C,D8*%
X86448400Y-40900000D03*
X88023400Y-40900000D03*
%TD*%
D10*
%TO.C,R15*%
X89650000Y-53150000D03*
X91300000Y-53150000D03*
%TD*%
%TO.C,R23*%
X89650000Y-67150000D03*
X91300000Y-67150000D03*
%TD*%
D20*
%TO.C,C2*%
X212178600Y-75133200D03*
X213728600Y-75133200D03*
%TD*%
D21*
%TO.C,U3*%
X122075400Y-123748800D03*
X122075400Y-125018800D03*
X122075400Y-126288800D03*
X122075400Y-127558800D03*
X127025400Y-127558800D03*
X127025400Y-126288800D03*
X127025400Y-125018800D03*
X127025400Y-123748800D03*
%TD*%
D22*
%TO.C,R125*%
X216636600Y-41440600D03*
X216636600Y-43090600D03*
%TD*%
D23*
%TO.C,C7*%
X185394600Y-100024700D03*
X185394600Y-101574700D03*
%TD*%
D11*
%TO.C,D10*%
X86448400Y-44400000D03*
X88023400Y-44400000D03*
%TD*%
D24*
%TO.C,R26*%
X192785000Y-75692000D03*
X191135000Y-75692000D03*
%TD*%
D25*
%TO.C,J16*%
X74950000Y-57475000D03*
D26*
X74950000Y-62475000D03*
X74950000Y-67475000D03*
X74950000Y-72475000D03*
X74950000Y-77475000D03*
X74950000Y-82475000D03*
X74950000Y-87475000D03*
X74950000Y-92475000D03*
%TD*%
D16*
%TO.C,J15*%
X108559600Y-105752400D03*
D27*
X111099600Y-105752400D03*
X108559600Y-108292400D03*
X111099600Y-108292400D03*
X108559600Y-110832400D03*
X111099600Y-110832400D03*
X108559600Y-113372400D03*
X111099600Y-113372400D03*
X108559600Y-115912400D03*
X111099600Y-115912400D03*
X108559600Y-118452400D03*
X111099600Y-118452400D03*
X108559600Y-120992400D03*
X111099600Y-120992400D03*
X108559600Y-123532400D03*
X111099600Y-123532400D03*
%TD*%
D11*
%TO.C,D22*%
X86448400Y-65400000D03*
X88023400Y-65400000D03*
%TD*%
D10*
%TO.C,R16*%
X89650000Y-54900000D03*
X91300000Y-54900000D03*
%TD*%
D28*
%TO.C,C12*%
X183926600Y-88341200D03*
X184886600Y-88341200D03*
%TD*%
D29*
%TO.C,C1*%
X211032600Y-77038200D03*
X213982600Y-77038200D03*
%TD*%
D11*
%TO.C,D24*%
X180848000Y-30308800D03*
X182423000Y-30308800D03*
%TD*%
D16*
%TO.C,J8*%
X177225800Y-55707200D03*
D27*
X177225800Y-53167200D03*
X179765800Y-55707200D03*
X179765800Y-53167200D03*
X182305800Y-55707200D03*
X182305800Y-53167200D03*
X184845800Y-55707200D03*
X184845800Y-53167200D03*
%TD*%
D24*
%TO.C,R29*%
X196951600Y-76479400D03*
X195301600Y-76479400D03*
%TD*%
D10*
%TO.C,R10*%
X89650000Y-44400000D03*
X91300000Y-44400000D03*
%TD*%
D16*
%TO.C,J1*%
X122975600Y-120904000D03*
D27*
X125515600Y-120904000D03*
%TD*%
D30*
%TO.C,C24*%
X231632800Y-51382700D03*
X230082800Y-51382700D03*
%TD*%
D11*
%TO.C,D19*%
X86448400Y-60150000D03*
X88023400Y-60150000D03*
%TD*%
D16*
%TO.C,J4*%
X131394200Y-126263400D03*
D27*
X131394200Y-128803400D03*
%TD*%
D16*
%TO.C,J18*%
X107353720Y-41567600D03*
D27*
X104813720Y-41567600D03*
X107353720Y-44107600D03*
X104813720Y-44107600D03*
X107353720Y-46647600D03*
X104813720Y-46647600D03*
X107353720Y-49187600D03*
X104813720Y-49187600D03*
X107353720Y-51727600D03*
X104813720Y-51727600D03*
X107353720Y-54267600D03*
X104813720Y-54267600D03*
X107353720Y-56807600D03*
X104813720Y-56807600D03*
X107353720Y-59347600D03*
X104813720Y-59347600D03*
X107353720Y-61887600D03*
X104813720Y-61887600D03*
X107353720Y-64427600D03*
X104813720Y-64427600D03*
%TD*%
D25*
%TO.C,J7*%
X75037500Y-98847500D03*
D26*
X75037500Y-103847500D03*
X75037500Y-108847500D03*
X75037500Y-113847500D03*
X75037500Y-118847500D03*
X75037500Y-123847500D03*
X75037500Y-128847500D03*
X75037500Y-133847500D03*
%TD*%
D16*
%TO.C,J22*%
X137353720Y-41567600D03*
D27*
X134813720Y-41567600D03*
X137353720Y-44107600D03*
X134813720Y-44107600D03*
X137353720Y-46647600D03*
X134813720Y-46647600D03*
X137353720Y-49187600D03*
X134813720Y-49187600D03*
X137353720Y-51727600D03*
X134813720Y-51727600D03*
X137353720Y-54267600D03*
X134813720Y-54267600D03*
X137353720Y-56807600D03*
X134813720Y-56807600D03*
X137353720Y-59347600D03*
X134813720Y-59347600D03*
X137353720Y-61887600D03*
X134813720Y-61887600D03*
X137353720Y-64427600D03*
X134813720Y-64427600D03*
%TD*%
D16*
%TO.C,J9*%
X93853000Y-103809800D03*
D27*
X96393000Y-103809800D03*
X93853000Y-106349800D03*
X96393000Y-106349800D03*
X93853000Y-108889800D03*
X96393000Y-108889800D03*
X93853000Y-111429800D03*
X96393000Y-111429800D03*
%TD*%
D31*
%TO.C,D33*%
X170180000Y-124460000D03*
D32*
X172720000Y-124460000D03*
%TD*%
D24*
%TO.C,R30*%
X196977000Y-74904600D03*
X195327000Y-74904600D03*
%TD*%
D10*
%TO.C,R12*%
X89650000Y-47900000D03*
X91300000Y-47900000D03*
%TD*%
D11*
%TO.C,D12*%
X86448400Y-47900000D03*
X88023400Y-47900000D03*
%TD*%
%TO.C,D3*%
X86448400Y-32150000D03*
X88023400Y-32150000D03*
%TD*%
D25*
%TO.C,J21*%
X174404000Y-147218400D03*
D26*
X179404000Y-147218400D03*
X184404000Y-147218400D03*
X189404000Y-147218400D03*
%TD*%
D10*
%TO.C,R5*%
X89650000Y-35650000D03*
X91300000Y-35650000D03*
%TD*%
D11*
%TO.C,D7*%
X86448400Y-39150000D03*
X88023400Y-39150000D03*
%TD*%
D16*
%TO.C,J20*%
X137350000Y-71982880D03*
D27*
X134810000Y-71982880D03*
X137350000Y-74522880D03*
X134810000Y-74522880D03*
X137350000Y-77062880D03*
X134810000Y-77062880D03*
X137350000Y-79602880D03*
X134810000Y-79602880D03*
X137350000Y-82142880D03*
X134810000Y-82142880D03*
X137350000Y-84682880D03*
X134810000Y-84682880D03*
X137350000Y-87222880D03*
X134810000Y-87222880D03*
X137350000Y-89762880D03*
X134810000Y-89762880D03*
X137350000Y-92302880D03*
X134810000Y-92302880D03*
X137350000Y-94842880D03*
X134810000Y-94842880D03*
%TD*%
D22*
%TO.C,R124*%
X216636600Y-44666400D03*
X216636600Y-46316400D03*
%TD*%
D16*
%TO.C,J12*%
X176733200Y-138861800D03*
D27*
X179273200Y-138861800D03*
%TD*%
D10*
%TO.C,R24*%
X184125600Y-95427800D03*
X185775600Y-95427800D03*
%TD*%
D33*
%TO.C,FB1*%
X186918600Y-99999700D03*
X186918600Y-101574700D03*
%TD*%
D31*
%TO.C,D28*%
X148460000Y-111100000D03*
D32*
X151000000Y-111100000D03*
%TD*%
D11*
%TO.C,D16*%
X86448400Y-54900000D03*
X88023400Y-54900000D03*
%TD*%
D10*
%TO.C,R105*%
X143892000Y-121716800D03*
X145542000Y-121716800D03*
%TD*%
D34*
%TO.C,U13*%
X231785200Y-46988500D03*
X230835200Y-46988500D03*
X229885200Y-46988500D03*
X229885200Y-49498500D03*
X231785200Y-49498500D03*
%TD*%
D35*
%TO.C,SW5*%
X218375000Y-77275000D03*
X224875000Y-77275000D03*
X224875000Y-72775000D03*
X218375000Y-72775000D03*
%TD*%
D10*
%TO.C,R6*%
X89650000Y-37400000D03*
X91300000Y-37400000D03*
%TD*%
D30*
%TO.C,C11*%
X214150000Y-80975000D03*
X212600000Y-80975000D03*
%TD*%
D20*
%TO.C,C4*%
X212191600Y-72085200D03*
X213741600Y-72085200D03*
%TD*%
D35*
%TO.C,SW4*%
X233603800Y-130472800D03*
X227103800Y-130472800D03*
X233603800Y-134972800D03*
X227103800Y-134972800D03*
%TD*%
D21*
%TO.C,U6*%
X180024000Y-128524000D03*
X180024000Y-129794000D03*
X180024000Y-131064000D03*
X180024000Y-132334000D03*
X184974000Y-132334000D03*
X184974000Y-131064000D03*
X184974000Y-129794000D03*
X184974000Y-128524000D03*
%TD*%
D30*
%TO.C,C20*%
X208763200Y-42240200D03*
X207213200Y-42240200D03*
%TD*%
D11*
%TO.C,D2*%
X86448400Y-30400000D03*
X88023400Y-30400000D03*
%TD*%
D31*
%TO.C,D29*%
X172593000Y-105689400D03*
D32*
X175133000Y-105689400D03*
%TD*%
D10*
%TO.C,R106*%
X172162200Y-139166600D03*
X173812200Y-139166600D03*
%TD*%
D31*
%TO.C,D31*%
X215900000Y-111125000D03*
D32*
X218440000Y-111125000D03*
%TD*%
D36*
%TO.C,U2*%
X203521800Y-130112200D03*
X206061800Y-130112200D03*
X208601800Y-130112200D03*
X211141800Y-130112200D03*
%TD*%
D16*
%TO.C,J11*%
X233121200Y-102768400D03*
D27*
X233121200Y-105308400D03*
%TD*%
D16*
%TO.C,J25*%
X167353720Y-41567600D03*
D27*
X164813720Y-41567600D03*
X167353720Y-44107600D03*
X164813720Y-44107600D03*
X167353720Y-46647600D03*
X164813720Y-46647600D03*
X167353720Y-49187600D03*
X164813720Y-49187600D03*
X167353720Y-51727600D03*
X164813720Y-51727600D03*
X167353720Y-54267600D03*
X164813720Y-54267600D03*
X167353720Y-56807600D03*
X164813720Y-56807600D03*
X167353720Y-59347600D03*
X164813720Y-59347600D03*
X167353720Y-61887600D03*
X164813720Y-61887600D03*
X167353720Y-64427600D03*
X164813720Y-64427600D03*
%TD*%
D37*
%TO.C,Y1*%
X179621600Y-93200200D03*
X185521600Y-93200200D03*
X185521600Y-90500200D03*
X179621600Y-90500200D03*
%TD*%
D38*
%TO.C,J28*%
X227533200Y-120091200D03*
D39*
X227533200Y-122631200D03*
X224993200Y-120091200D03*
X224993200Y-122631200D03*
X222453200Y-120091200D03*
X222453200Y-122631200D03*
%TD*%
D18*
%TO.C,J19*%
X193929000Y-54412200D03*
D19*
X196469000Y-54412200D03*
X199009000Y-54412200D03*
X201549000Y-54412200D03*
%TD*%
D10*
%TO.C,R22*%
X89650000Y-65400000D03*
X91300000Y-65400000D03*
%TD*%
D11*
%TO.C,D15*%
X86448400Y-53150000D03*
X88023400Y-53150000D03*
%TD*%
D10*
%TO.C,R11*%
X89650000Y-46150000D03*
X91300000Y-46150000D03*
%TD*%
%TO.C,R13*%
X89650000Y-49650000D03*
X91300000Y-49650000D03*
%TD*%
D11*
%TO.C,D14*%
X86448400Y-51400000D03*
X88023400Y-51400000D03*
%TD*%
D10*
%TO.C,R8*%
X89650000Y-40900000D03*
X91300000Y-40900000D03*
%TD*%
D11*
%TO.C,D17*%
X86448400Y-56650000D03*
X88023400Y-56650000D03*
%TD*%
D40*
%TO.C,U8*%
X220625000Y-90675000D03*
D41*
X220625000Y-89405000D03*
X220625000Y-88135000D03*
%TD*%
D11*
%TO.C,D4*%
X86448400Y-33900000D03*
X88023400Y-33900000D03*
%TD*%
D16*
%TO.C,J23*%
X167350000Y-71982880D03*
D27*
X164810000Y-71982880D03*
X167350000Y-74522880D03*
X164810000Y-74522880D03*
X167350000Y-77062880D03*
X164810000Y-77062880D03*
X167350000Y-79602880D03*
X164810000Y-79602880D03*
X167350000Y-82142880D03*
X164810000Y-82142880D03*
X167350000Y-84682880D03*
X164810000Y-84682880D03*
X167350000Y-87222880D03*
X164810000Y-87222880D03*
X167350000Y-89762880D03*
X164810000Y-89762880D03*
X167350000Y-92302880D03*
X164810000Y-92302880D03*
X167350000Y-94842880D03*
X164810000Y-94842880D03*
%TD*%
D10*
%TO.C,R1*%
X89650000Y-28650000D03*
X91300000Y-28650000D03*
%TD*%
D12*
%TO.C,R52*%
X216550000Y-89052400D03*
X216550000Y-87402400D03*
%TD*%
D42*
%TO.C,Q5*%
X232234500Y-108295400D03*
X232234500Y-110195400D03*
X234109500Y-109245400D03*
%TD*%
D16*
%TO.C,J24*%
X137541000Y-113411000D03*
D27*
X137541000Y-115951000D03*
%TD*%
D12*
%TO.C,R104*%
X230172500Y-110006400D03*
X230172500Y-108356400D03*
%TD*%
D43*
%TO.C,J30*%
X228501000Y-65765800D03*
D44*
X228501000Y-68265800D03*
X228501000Y-70265800D03*
X228501000Y-72765800D03*
D45*
X233281000Y-69265800D03*
D46*
X229101000Y-62695800D03*
X229101000Y-75835800D03*
%TD*%
D10*
%TO.C,R7*%
X89650000Y-39150000D03*
X91300000Y-39150000D03*
%TD*%
D22*
%TO.C,R60*%
X226161600Y-105995200D03*
X226161600Y-107645200D03*
%TD*%
D11*
%TO.C,D1*%
X86448400Y-28650000D03*
X88023400Y-28650000D03*
%TD*%
D16*
%TO.C,J10*%
X197434200Y-72110600D03*
D27*
X199974200Y-72110600D03*
X202514200Y-72110600D03*
X205054200Y-72110600D03*
X207594200Y-72110600D03*
%TD*%
D47*
%TO.C,U7*%
X194558000Y-32562800D03*
D48*
X203708000Y-35102800D03*
D47*
X194558000Y-37642800D03*
%TD*%
D10*
%TO.C,R2*%
X89650000Y-30400000D03*
X91300000Y-30400000D03*
%TD*%
D16*
%TO.C,J3*%
X233045000Y-95961200D03*
D27*
X233045000Y-98501200D03*
%TD*%
D49*
%TO.C,U1*%
X188702100Y-80226200D03*
X188702100Y-80726200D03*
X188702100Y-81226200D03*
X188702100Y-81726200D03*
X188702100Y-82226200D03*
X188702100Y-82726200D03*
X188702100Y-83226200D03*
X188702100Y-83726200D03*
X188702100Y-84226200D03*
X188702100Y-84726200D03*
X188702100Y-85226200D03*
X188702100Y-85726200D03*
X188702100Y-86226200D03*
X188702100Y-86726200D03*
X188702100Y-87226200D03*
X188702100Y-87726200D03*
X188702100Y-88226200D03*
X188702100Y-88726200D03*
X188702100Y-89226200D03*
X188702100Y-89726200D03*
X188702100Y-90226200D03*
X188702100Y-90726200D03*
X188702100Y-91226200D03*
X188702100Y-91726200D03*
X188702100Y-92226200D03*
X188702100Y-92726200D03*
X188702100Y-93226200D03*
X188702100Y-93726200D03*
X188702100Y-94226200D03*
X188702100Y-94726200D03*
X188702100Y-95226200D03*
X188702100Y-95726200D03*
X188702100Y-96226200D03*
X188702100Y-96726200D03*
X188702100Y-97226200D03*
X188702100Y-97726200D03*
D50*
X190614600Y-99638700D03*
X191114600Y-99638700D03*
X191614600Y-99638700D03*
X192114600Y-99638700D03*
X192614600Y-99638700D03*
X193114600Y-99638700D03*
X193614600Y-99638700D03*
X194114600Y-99638700D03*
X194614600Y-99638700D03*
X195114600Y-99638700D03*
X195614600Y-99638700D03*
X196114600Y-99638700D03*
X196614600Y-99638700D03*
X197114600Y-99638700D03*
X197614600Y-99638700D03*
X198114600Y-99638700D03*
X198614600Y-99638700D03*
X199114600Y-99638700D03*
X199614600Y-99638700D03*
X200114600Y-99638700D03*
X200614600Y-99638700D03*
X201114600Y-99638700D03*
X201614600Y-99638700D03*
X202114600Y-99638700D03*
X202614600Y-99638700D03*
X203114600Y-99638700D03*
X203614600Y-99638700D03*
X204114600Y-99638700D03*
X204614600Y-99638700D03*
X205114600Y-99638700D03*
X205614600Y-99638700D03*
X206114600Y-99638700D03*
X206614600Y-99638700D03*
X207114600Y-99638700D03*
X207614600Y-99638700D03*
X208114600Y-99638700D03*
D49*
X210027100Y-97726200D03*
X210027100Y-97226200D03*
X210027100Y-96726200D03*
X210027100Y-96226200D03*
X210027100Y-95726200D03*
X210027100Y-95226200D03*
X210027100Y-94726200D03*
X210027100Y-94226200D03*
X210027100Y-93726200D03*
X210027100Y-93226200D03*
X210027100Y-92726200D03*
X210027100Y-92226200D03*
X210027100Y-91726200D03*
X210027100Y-91226200D03*
X210027100Y-90726200D03*
X210027100Y-90226200D03*
X210027100Y-89726200D03*
X210027100Y-89226200D03*
X210027100Y-88726200D03*
X210027100Y-88226200D03*
X210027100Y-87726200D03*
X210027100Y-87226200D03*
X210027100Y-86726200D03*
X210027100Y-86226200D03*
X210027100Y-85726200D03*
X210027100Y-85226200D03*
X210027100Y-84726200D03*
X210027100Y-84226200D03*
X210027100Y-83726200D03*
X210027100Y-83226200D03*
X210027100Y-82726200D03*
X210027100Y-82226200D03*
X210027100Y-81726200D03*
X210027100Y-81226200D03*
X210027100Y-80726200D03*
X210027100Y-80226200D03*
D50*
X208114600Y-78313700D03*
X207614600Y-78313700D03*
X207114600Y-78313700D03*
X206614600Y-78313700D03*
X206114600Y-78313700D03*
X205614600Y-78313700D03*
X205114600Y-78313700D03*
X204614600Y-78313700D03*
X204114600Y-78313700D03*
X203614600Y-78313700D03*
X203114600Y-78313700D03*
X202614600Y-78313700D03*
X202114600Y-78313700D03*
X201614600Y-78313700D03*
X201114600Y-78313700D03*
X200614600Y-78313700D03*
X200114600Y-78313700D03*
X199614600Y-78313700D03*
X199114600Y-78313700D03*
X198614600Y-78313700D03*
X198114600Y-78313700D03*
X197614600Y-78313700D03*
X197114600Y-78313700D03*
X196614600Y-78313700D03*
X196114600Y-78313700D03*
X195614600Y-78313700D03*
X195114600Y-78313700D03*
X194614600Y-78313700D03*
X194114600Y-78313700D03*
X193614600Y-78313700D03*
X193114600Y-78313700D03*
X192614600Y-78313700D03*
X192114600Y-78313700D03*
X191614600Y-78313700D03*
X191114600Y-78313700D03*
X190614600Y-78313700D03*
%TD*%
D20*
%TO.C,C19*%
X203936600Y-42291000D03*
X205486600Y-42291000D03*
%TD*%
D13*
%TO.C,J6*%
X148056600Y-151553200D03*
X146786600Y-151553200D03*
X145516600Y-151553200D03*
X144246600Y-151553200D03*
X142976600Y-151553200D03*
X141706600Y-151553200D03*
X140436600Y-151553200D03*
X139166600Y-151553200D03*
D14*
X143611600Y-135623200D03*
%TD*%
D13*
%TO.C,J5*%
X131597400Y-151553200D03*
X130327400Y-151553200D03*
X129057400Y-151553200D03*
X127787400Y-151553200D03*
X126517400Y-151553200D03*
X125247400Y-151553200D03*
X123977400Y-151553200D03*
X122707400Y-151553200D03*
D14*
X127152400Y-135623200D03*
%TD*%
D10*
%TO.C,R42*%
X177572500Y-32302200D03*
X179222500Y-32302200D03*
%TD*%
D11*
%TO.C,D21*%
X86448400Y-63650000D03*
X88023400Y-63650000D03*
%TD*%
D10*
%TO.C,R3*%
X89650000Y-32150000D03*
X91300000Y-32150000D03*
%TD*%
D16*
%TO.C,J27*%
X174244000Y-129921000D03*
D27*
X174244000Y-132461000D03*
X174244000Y-135001000D03*
%TD*%
D31*
%TO.C,D32*%
X152400000Y-124460000D03*
D32*
X154940000Y-124460000D03*
%TD*%
D10*
%TO.C,R20*%
X89650000Y-61900000D03*
X91300000Y-61900000D03*
%TD*%
D16*
%TO.C,SW3*%
X213080600Y-64465200D03*
D27*
X213080600Y-67005200D03*
%TD*%
D20*
%TO.C,C3*%
X212178600Y-73609200D03*
X213728600Y-73609200D03*
%TD*%
D12*
%TO.C,R61*%
X128487400Y-122071400D03*
X128487400Y-120421400D03*
%TD*%
D10*
%TO.C,R18*%
X89650000Y-58400000D03*
X91300000Y-58400000D03*
%TD*%
%TO.C,R41*%
X177572500Y-30302200D03*
X179222500Y-30302200D03*
%TD*%
D51*
%TO.C,U5*%
X199745600Y-63641200D03*
X198475600Y-63641200D03*
X197205600Y-63641200D03*
X195935600Y-63641200D03*
X195935600Y-68591200D03*
X197205600Y-68591200D03*
X198475600Y-68591200D03*
X199745600Y-68591200D03*
%TD*%
D12*
%TO.C,R37*%
X207725000Y-103300000D03*
X207725000Y-101650000D03*
%TD*%
D10*
%TO.C,R21*%
X89650000Y-63650000D03*
X91300000Y-63650000D03*
%TD*%
D25*
%TO.C,J29*%
X74930000Y-139700000D03*
D26*
X74930000Y-144700000D03*
%TD*%
D52*
%TO.C,C13*%
X180238400Y-95275400D03*
X179278400Y-95275400D03*
%TD*%
D11*
%TO.C,D9*%
X86448400Y-42650000D03*
X88023400Y-42650000D03*
%TD*%
D31*
%TO.C,D30*%
X201930000Y-111125000D03*
D32*
X204470000Y-111125000D03*
%TD*%
D31*
%TO.C,D35*%
X207259000Y-124460000D03*
D32*
X209799000Y-124460000D03*
%TD*%
D11*
%TO.C,D11*%
X86448400Y-46150000D03*
X88023400Y-46150000D03*
%TD*%
%TO.C,D26*%
X180848000Y-34308800D03*
X182423000Y-34308800D03*
%TD*%
D10*
%TO.C,R4*%
X89650000Y-33900000D03*
X91300000Y-33900000D03*
%TD*%
D24*
%TO.C,R25*%
X185750200Y-96951800D03*
X184100200Y-96951800D03*
%TD*%
D53*
%TO.C,Q44*%
X145592800Y-123748800D03*
X143692800Y-123748800D03*
X144642800Y-125623800D03*
%TD*%
D11*
%TO.C,D20*%
X86448400Y-61900000D03*
X88023400Y-61900000D03*
%TD*%
D20*
%TO.C,C5*%
X212191600Y-70561200D03*
X213741600Y-70561200D03*
%TD*%
D54*
%TO.C,RV1*%
X216839800Y-56565800D03*
X218139800Y-51565800D03*
%TD*%
D31*
%TO.C,D34*%
X189230000Y-124460000D03*
D32*
X191770000Y-124460000D03*
%TD*%
D23*
%TO.C,C6*%
X183870600Y-100037700D03*
X183870600Y-101587700D03*
%TD*%
D12*
%TO.C,R128*%
X214960200Y-43090600D03*
X214960200Y-41440600D03*
%TD*%
D11*
%TO.C,D25*%
X180848000Y-32308800D03*
X182423000Y-32308800D03*
%TD*%
D16*
%TO.C,J17*%
X107350000Y-71982880D03*
D27*
X104810000Y-71982880D03*
X107350000Y-74522880D03*
X104810000Y-74522880D03*
X107350000Y-77062880D03*
X104810000Y-77062880D03*
X107350000Y-79602880D03*
X104810000Y-79602880D03*
X107350000Y-82142880D03*
X104810000Y-82142880D03*
X107350000Y-84682880D03*
X104810000Y-84682880D03*
X107350000Y-87222880D03*
X104810000Y-87222880D03*
X107350000Y-89762880D03*
X104810000Y-89762880D03*
X107350000Y-92302880D03*
X104810000Y-92302880D03*
X107350000Y-94842880D03*
X104810000Y-94842880D03*
%TD*%
D35*
%TO.C,SW2*%
X227103800Y-140970000D03*
X233603800Y-140970000D03*
X233603800Y-145470000D03*
X227103800Y-145470000D03*
%TD*%
D10*
%TO.C,R9*%
X89650000Y-42650000D03*
X91300000Y-42650000D03*
%TD*%
D11*
%TO.C,D23*%
X86448400Y-67150000D03*
X88023400Y-67150000D03*
%TD*%
D55*
%TO.C,C8*%
X188442600Y-101574700D03*
X188442600Y-100024700D03*
%TD*%
D13*
%TO.C,J13*%
X164515800Y-151553200D03*
X163245800Y-151553200D03*
X161975800Y-151553200D03*
X160705800Y-151553200D03*
X159435800Y-151553200D03*
X158165800Y-151553200D03*
X156895800Y-151553200D03*
X155625800Y-151553200D03*
D14*
X160070800Y-135623200D03*
%TD*%
D11*
%TO.C,D6*%
X86448400Y-37400000D03*
X88023400Y-37400000D03*
%TD*%
D16*
%TO.C,SW1*%
X188569600Y-69545200D03*
D27*
X188569600Y-72085200D03*
X188569600Y-74625200D03*
%TD*%
D24*
%TO.C,R27*%
X192786000Y-73710800D03*
X191136000Y-73710800D03*
%TD*%
D55*
%TO.C,C9*%
X182143400Y-97130200D03*
X182143400Y-95580200D03*
%TD*%
M02*
